<?xml version="1.0" encoding="UTF-8"?>
<svg version="1.1" xmlns="http://www.w3.org/2000/svg" width="500" height="777">
<path d="M0 0 C34.98 0 69.96 0 106 0 C106.01458252 8.0953125 106.02916504 16.190625 106.04418945 24.53125 C106.09302011 50.47825967 106.15644942 76.42521413 106.22898628 102.37216771 C106.24025349 106.40729118 106.2513921 110.44241501 106.26245117 114.47753906 C106.26465486 115.28080808 106.26685854 116.08407711 106.269129 116.91168761 C106.30443327 129.8921202 106.3293361 142.87255273 106.35034702 155.85301542 C106.37216396 169.18727723 106.40526994 182.52147711 106.44870156 195.85568619 C106.47511712 204.07350489 106.49288667 212.29124655 106.49934604 220.50910556 C106.504631 226.15606044 106.52095114 231.80291865 106.54566566 237.44982159 C106.5595752 240.70038822 106.56724662 243.95075026 106.56500816 247.20135117 C106.55093142 277.0916358 111.35361284 303.62321327 133 326 C137.09306011 329.66570429 141.49572491 332.86250126 146 336 C146.82242188 336.57621094 147.64484375 337.15242188 148.4921875 337.74609375 C169.26755369 351.21160887 196.01352714 354.51213249 220 350 C235.33929234 346.60390667 248.57380068 340.47476736 261 331 C261.73863281 330.44699219 262.47726562 329.89398437 263.23828125 329.32421875 C281.82906993 314.31001467 290.93244539 290.04438862 293.56931686 266.9854126 C294.57125652 256.74718302 294.31031742 246.40806881 294.31884766 236.1328125 C294.32816095 233.54920137 294.33833168 230.96559321 294.34928894 228.38198853 C294.37141194 222.85032693 294.38651444 217.31868336 294.39665604 211.7869873 C294.41132897 203.78938833 294.43688902 195.79185228 294.46498732 187.79429054 C294.5103001 174.81437453 294.54697851 161.83444937 294.578125 148.85449219 C294.60837445 136.25616861 294.64275376 123.6578673 294.68261719 111.05957031 C294.68507874 110.28118105 294.68754028 109.50279178 294.69007643 108.70081496 C294.70245227 104.79531823 294.71490856 100.88982176 294.72740483 96.98432541 C294.83073998 64.65624342 294.91841017 32.328146 295 0 C329.98 0 364.96 0 401 0 C401.06631532 34.97299674 401.12163846 69.94593174 401.15319599 104.91897257 C401.15694746 109.06137896 401.16083049 113.20378522 401.16479492 117.34619141 C401.16558185 118.17076224 401.16636878 118.99533308 401.16717956 119.84489091 C401.18018229 133.14192511 401.20380735 146.43891983 401.23145839 159.73593073 C401.25965632 173.41146388 401.27620642 187.08697657 401.28226548 200.7625376 C401.28635233 209.17997524 401.29919071 217.59730121 401.3237494 226.01470442 C401.33978494 231.81120366 401.34436081 237.60764641 401.34050413 243.40416615 C401.33860976 246.73299395 401.34292676 250.06147534 401.35761642 253.39029312 C401.57487734 305.22686062 390.79071758 353.84261386 354 392 C353.30777344 392.75539063 352.61554688 393.51078125 351.90234375 394.2890625 C340.26222713 406.6244462 325.81818374 415.95735158 311 424 C310.35772461 424.35400879 309.71544922 424.70801758 309.05371094 425.07275391 C289.61854424 435.68688518 268.68445004 441.89357596 247 446 C246.06043457 446.17934082 245.12086914 446.35868164 244.15283203 446.54345703 C214.95008484 451.77884361 181.11182098 451.7551433 152 446 C150.44974121 445.70198486 150.44974121 445.70198486 148.86816406 445.39794922 C113.24179572 438.35601825 80.07719877 423.87685507 53.234375 399.04296875 C51.35049302 397.32046827 49.42865369 395.71883633 47.4375 394.125 C42.62250655 390.02041542 38.87960917 384.96563805 35 380 C34.26652344 379.09378906 33.53304687 378.18757813 32.77734375 377.25390625 C6.69157115 344.08310899 -0.54131849 303.24669928 -0.34819686 262.12969792 C-0.33502455 258.59833847 -0.33964063 255.06699118 -0.34190369 251.53561401 C-0.34346329 245.44305095 -0.33419334 239.3505856 -0.31719017 233.2580471 C-0.29262389 224.44969079 -0.28497706 215.64138087 -0.2812262 206.83299402 C-0.27468907 192.53585282 -0.25480298 178.23876349 -0.22631836 163.94165039 C-0.19870638 150.06795508 -0.17750793 136.19427395 -0.16479492 122.32055664 C-0.16400675 121.46283211 -0.16321858 120.60510758 -0.16240653 119.7213914 C-0.15849091 115.41767822 -0.15469991 111.11396494 -0.15097082 106.81025159 C-0.11996035 71.2067883 -0.06470393 35.60342113 0 0 Z " fill="#000000" transform="translate(0,328)"/>
<path d="M0 0 C1.69593014 0.84254509 3.36573296 1.73849711 5.015625 2.66796875 C6.50243774 3.5021936 6.50243774 3.5021936 8.01928711 4.35327148 C9.08542236 4.95856689 10.15155762 5.5638623 11.25 6.1875 C12.91977905 7.12928101 12.91977905 7.12928101 14.62329102 8.09008789 C24.100081 13.45159504 33.50937716 18.92681788 42.90234375 24.43359375 C49.25046566 28.15334883 55.62359042 31.82900653 62 35.5 C70.30824733 40.28452556 78.59998734 45.09573728 86.875 49.9375 C96.14558188 55.35968383 105.45936802 60.70324071 114.79046631 66.02023315 C122.88707882 70.63484051 130.95786663 75.29088487 139 80 C148.82676298 85.75363854 158.69989712 91.42291882 168.59570312 97.05664062 C170.75252292 98.2852415 172.89506612 99.53929491 175.02148438 100.8197937 C177.86838247 102.46732586 180.71560901 103.69828628 183.78796387 104.86734009 C189.18941064 107.11549137 194.12481019 109.50702835 198 114 C201.38924051 122.29064006 200.20541093 131.91494999 199.85546875 140.66796875 C199.81999548 143.27531616 199.79296656 145.88279092 199.77400208 148.49031067 C199.71520819 154.63065588 199.55972256 160.76448436 199.36836177 166.90197307 C199.15511256 173.89512276 199.05131747 180.88860404 198.95614851 187.88420141 C198.75815905 202.25961803 198.42453544 216.62957715 198 231 C194.06804528 229.7282356 190.63344163 228.38267032 187.078125 226.26953125 C186.14887207 225.72176025 185.21961914 225.17398926 184.26220703 224.60961914 C183.26817871 224.01656982 182.27415039 223.42352051 181.25 222.8125 C179.08632451 221.53580222 176.92224834 220.25978329 174.7578125 218.984375 C173.64180664 218.32501953 172.52580078 217.66566406 171.37597656 216.98632812 C165.9787367 213.81074644 160.55236 210.6862344 155.125 207.5625 C152.94008624 206.30341652 150.75519051 205.04430177 148.5703125 203.78515625 C146.94270996 202.84760498 146.94270996 202.84760498 145.28222656 201.89111328 C138.77128743 198.13971976 132.26336806 194.38309006 125.75488281 190.62744141 C120.31414664 187.48817754 114.87268523 184.35018503 109.4296875 181.21484375 C98.97793801 175.19252671 88.53700452 169.15330663 78.125 163.0625 C68.85839326 157.64277153 59.54903194 152.30085219 50.22161865 146.98681641 C41.86907598 142.22724446 33.54786275 137.41694182 25.25 132.5625 C23.29949467 131.42835875 21.34897438 130.29424324 19.3984375 129.16015625 C15.9649239 127.16061095 12.55576649 125.12816781 9.1640625 123.05859375 C7.73446258 122.20558236 6.30478145 121.35270708 4.875 120.5 C4.25399414 120.10756104 3.63298828 119.71512207 2.99316406 119.31079102 C0.03885688 117.57371441 -1.5580565 116.92286288 -4.9765625 117.51953125 C-8.50863081 119.24905824 -11.89447851 121.14292728 -15.25 123.1875 C-16.76618915 124.09498405 -18.28316888 125.00114806 -19.80078125 125.90625 C-20.62916504 126.40125 -21.45754883 126.89625 -22.31103516 127.40625 C-27.32667865 130.3790229 -32.38418227 133.27939472 -37.4375 136.1875 C-38.54319336 136.82453857 -39.64888672 137.46157715 -40.78808594 138.11791992 C-43.06024082 139.42700657 -45.33254009 140.73584262 -47.60498047 142.04443359 C-53.0716998 145.19332054 -58.53574887 148.34683264 -64 151.5 C-66.16665311 152.7500235 -68.33331979 154.00002347 -70.5 155.25 C-71.5725 155.86875 -72.645 156.4875 -73.75 157.125 C-83.5 162.75 -83.5 162.75 -86.75048828 164.62524414 C-88.91557071 165.87435518 -91.08060982 167.12354129 -93.24560547 168.37280273 C-98.68615706 171.51202309 -104.12747216 174.64990563 -109.5703125 177.78515625 C-121.05164953 184.4005933 -132.51725101 191.04145782 -143.95703125 197.72851562 C-152.40966228 202.6656963 -160.89035637 207.5533659 -169.37695312 212.43188477 C-174.7594661 215.53188296 -180.12465895 218.6569125 -185.4609375 221.8359375 C-186.47913574 222.44236084 -187.49733398 223.04878418 -188.54638672 223.67358398 C-190.47490956 224.82530969 -192.40112911 225.98090344 -194.32470703 227.14086914 C-195.17661621 227.64996826 -196.02852539 228.15906738 -196.90625 228.68359375 C-197.65197266 229.13275146 -198.39769531 229.58190918 -199.16601562 230.04467773 C-201 231 -201 231 -203 231 C-203.56277006 215.98938792 -203.98484873 200.97959537 -204.24349213 185.96065331 C-204.36683991 178.98481409 -204.53461856 172.01555498 -204.81054688 165.04394531 C-205.07708798 158.30624994 -205.21503333 151.57676412 -205.27705383 144.8335762 C-205.32119317 142.27067462 -205.40741981 139.70812157 -205.53752136 137.14814377 C-206.33286108 120.84018777 -206.33286108 120.84018777 -203 114 C-197.11992565 107.90367034 -189.4857316 104.4802199 -181.78815651 101.21157932 C-178.28831728 99.69074187 -175.13555751 97.86775993 -171.8828125 95.87890625 C-169.96388285 94.77284536 -168.04462051 93.66736143 -166.125 92.5625 C-165.06168457 91.94963135 -163.99836914 91.3367627 -162.90283203 90.70532227 C-158.50541626 88.17078589 -154.10717079 85.63769095 -149.70898438 83.10449219 C-146.43068938 81.21601507 -143.15271515 79.32698334 -139.875 77.4375 C-138.79605469 76.81552734 -137.71710938 76.19355469 -136.60546875 75.55273438 C-129.43128049 71.41311552 -122.2744002 67.24475079 -115.125 63.0625 C-105.85500223 57.64078822 -96.54168248 52.29795085 -87.21154785 46.98077393 C-78.09088094 41.78166317 -69.00619408 36.52377612 -59.9440918 31.22314453 C-50.42711677 25.65820738 -40.88439777 20.1388069 -31.32421875 14.6484375 C-27.14261251 12.24483201 -22.98078288 9.81141235 -18.83203125 7.3515625 C-17.86740967 6.78518066 -16.90278809 6.21879883 -15.90893555 5.63525391 C-14.09858272 4.57187205 -12.29369902 3.49910469 -10.49536133 2.41552734 C-9.29496216 1.71484131 -9.29496216 1.71484131 -8.0703125 1 C-7.37695801 0.5875 -6.68360352 0.175 -5.96923828 -0.25 C-3.46192057 -1.20493181 -2.48842027 -0.95683506 0 0 Z " fill="#A435F0" transform="translate(203,1)"/>
<path d="M0 0 C2.97 0 5.94 0 9 0 C11.3232855 2.59025675 12.6295215 4.43724435 14.1875 7.4375 C15.02119657 8.9054815 15.85582801 10.37293248 16.69140625 11.83984375 C17.08344238 12.55382324 17.47547852 13.26780273 17.87939453 14.00341797 C19.33285194 16.59304209 20.95206417 19.04767289 22.625 21.5 C23.32496094 22.53640625 23.32496094 22.53640625 24.0390625 23.59375 C24.35617187 24.0578125 24.67328125 24.521875 25 25 C27.78056398 22.36278721 29.95417361 19.7725147 31.98046875 16.5234375 C32.76647461 15.27046875 32.76647461 15.27046875 33.56835938 13.9921875 C34.10267578 13.12851562 34.63699219 12.26484375 35.1875 11.375 C35.73341797 10.50359375 36.27933594 9.6321875 36.84179688 8.734375 C39.5604875 4.44638538 39.5604875 4.44638538 42 0 C44.97 0 47.94 0 51 0 C51 16.83 51 33.66 51 51 C48.03 51 45.06 51 42 51 C41.67 41.1 41.34 31.2 41 21 C39.4325 23.330625 37.865 25.66125 36.25 28.0625 C35.7643457 28.78187744 35.27869141 29.50125488 34.77832031 30.24243164 C31.99369574 34.40180882 29.43435227 38.62612875 27 43 C26.01 43 25.02 43 24 43 C22.421875 40.7265625 22.421875 40.7265625 20.75 37.625 C17.51253038 31.65880598 13.98986222 26.69980318 10 21 C9.67 30.9 9.34 40.8 9 51 C6.03 51 3.06 51 0 51 C0 34.17 0 17.34 0 0 Z " fill="#000000" transform="translate(449,714)"/>
<path d="M0 0 C12.21 0 24.42 0 37 0 C37 2.97 37 5.94 37 9 C32.71 9 28.42 9 24 9 C24 22.86 24 36.72 24 51 C13 51 13 51 11 50 C10.67 37.46 10.34 24.92 10 12 C7.36 12 4.72 12 2 12 C1.34 11.34 0.68 10.68 0 10 C0 6.7 0 3.4 0 0 Z " fill="#000000" transform="translate(404,714)"/>
<path d="M0 0 C0.33 0 0.66 0 1 0 C1 91.74 1 183.48 1 278 C0.67 278 0.34 278 0 278 C0 186.26 0 94.52 0 0 Z " fill="#000000" transform="translate(402,328)"/>
<path d="M0 0 C0.33 0 0.66 0 1 0 C1.33 91.08 1.66 182.16 2 276 C1.67 276 1.34 276 1 276 C0.04359604 269.58367578 -0.1387732 263.34503852 -0.12025452 256.86364746 C-0.12110894 255.76242003 -0.12196337 254.6611926 -0.12284368 253.52659464 C-0.12448681 249.84779118 -0.11899622 246.16903362 -0.11352539 242.49023438 C-0.11324324 239.84869281 -0.1133578 237.20715402 -0.1139679 234.56561279 C-0.11449121 228.8842878 -0.11136452 223.20297432 -0.10573006 217.52165222 C-0.09758898 209.30750347 -0.09499716 201.09336026 -0.09374207 192.87920791 C-0.09155564 179.5509792 -0.08490666 166.22275663 -0.07543945 152.89453125 C-0.06625474 139.95052114 -0.05917909 127.00651271 -0.05493164 114.0625 C-0.05453756 112.86488046 -0.05453756 112.86488046 -0.05413551 111.64306659 C-0.05283043 107.63750057 -0.05156673 103.63193455 -0.05032361 99.62636852 C-0.03996375 66.41757455 -0.02235658 33.2087881 0 0 Z " fill="#000000" transform="translate(107,328)"/>
<path d="M0 0 C0.33 0 0.66 0 1 0 C1 89.1 1 178.2 1 270 C0.67 270 0.34 270 0 270 C0 180.9 0 91.8 0 0 Z " fill="#000000" transform="translate(292,328)"/>
<path d="M0 0 C34.65 0 69.3 0 105 0 C105 0.66 105 1.32 105 2 C70.35 2 35.7 2 0 2 C0 1.34 0 0.68 0 0 Z " fill="#000000" transform="translate(295,325)"/>
<path d="M0 0 C34.65 0 69.3 0 105 0 C105 0.66 105 1.32 105 2 C70.35 2 35.7 2 0 2 C0 1.34 0 0.68 0 0 Z " fill="#000000" transform="translate(0,325)"/>
<path d="M0 0 C0.33 0 0.66 0 1 0 C1 38.61 1 77.22 1 117 C0.67 117 0.34 117 0 117 C0 78.39 0 39.78 0 0 Z " fill="#AB2BD7" transform="translate(402,115)"/>
<path d="M0 0 C-8.47481263 4.66243119 -18.64968646 4.31601623 -28.0625 4.25 C-29.16916016 4.25773438 -30.27582031 4.26546875 -31.41601562 4.2734375 C-38.17830861 4.25746043 -44.43225659 3.62504684 -51 2 C-51 1.67 -51 1.34 -51 1 C-50.40058594 1.0721875 -49.80117187 1.144375 -49.18359375 1.21875 C-41.93467607 1.96117116 -34.72068264 2.1405458 -27.4375 2.1875 C-26.00265259 2.20683594 -26.00265259 2.20683594 -24.53881836 2.2265625 C-18.67059257 2.23459086 -13.23331182 1.659137 -7.49243164 0.4309082 C-4.94513141 -0.00948605 -2.57964259 -0.07304416 0 0 Z " fill="#000000" transform="translate(228,675)"/>
<path d="M0 0 C3.96 0 7.92 0 12 0 C11.34 0.66 10.68 1.32 10 2 C7.36 2 4.72 2 2 2 C1.67 14.54 1.34 27.08 1 40 C0.67 40 0.34 40 0 40 C0 26.8 0 13.6 0 0 Z " fill="#000000" transform="translate(429,724)"/>
<path d="M0 0 C0.33 0 0.66 0 1 0 C1 9.24 1 18.48 1 28 C0.34 28 -0.32 28 -1 28 C-1.02891949 23.70834738 -1.04677118 19.41671964 -1.0625 15.125 C-1.07087891 13.90167969 -1.07925781 12.67835938 -1.08789062 11.41796875 C-1.09111328 10.25136719 -1.09433594 9.08476563 -1.09765625 7.8828125 C-1.10289307 6.80402832 -1.10812988 5.72524414 -1.11352539 4.61376953 C-1 2 -1 2 0 0 Z " fill="#000000" transform="translate(489,736)"/>
<path d="M0 0 C0.33 0 0.66 0 1 0 C1 16.5 1 33 1 50 C0.67 50 0.34 50 0 50 C0 33.5 0 17 0 0 Z " fill="#000000" transform="translate(446,714)"/>
<path d="M0 0 C11.88 0 23.76 0 36 0 C36 0.33 36 0.66 36 1 C24.12 1 12.24 1 0 1 C0 0.67 0 0.34 0 0 Z " fill="#000000" transform="translate(405,711)"/>
<path d="M0 0 C0.99 0.99 1.98 1.98 3 3 C2.67 3.66 2.34 4.32 2 5 C1.84733388 6.73868744 1.75067404 8.48247501 1.68359375 10.2265625 C1.64169922 11.2578125 1.59980469 12.2890625 1.55664062 13.3515625 C1.51732422 14.43179688 1.47800781 15.51203125 1.4375 16.625 C1.39431641 17.71296875 1.35113281 18.8009375 1.30664062 19.921875 C1.2003547 22.6144517 1.09831943 25.30712253 1 28 C0.67 28 0.34 28 0 28 C0 18.76 0 9.52 0 0 Z " fill="#000000" transform="translate(459,736)"/>
<path d="M0 0 C0.33 0 0.66 0 1 0 C1.60172923 9.47723538 -0.63599942 17.90281921 -3 27 C-4.42678734 23.14767419 -3.56476507 20.2310617 -2.625 16.3125 C-1.37538945 10.85187307 -0.48074811 5.57667804 0 0 Z " fill="#000000" transform="translate(400,619)"/>
<path d="M0 0 C-6.80981199 3.71728269 -14.37110317 4.28255173 -22 4 C-22 3.67 -22 3.34 -22 3 C-19.27172635 2.49465273 -16.54255306 1.99556155 -13.8125 1.5 C-13.04357422 1.35691406 -12.27464844 1.21382812 -11.48242188 1.06640625 C-7.60578227 0.36761285 -3.958529 -0.19039017 0 0 Z " fill="#000000" transform="translate(257,773)"/>
<path d="M0 0 C0.33 0 0.66 0 1 0 C1.50604924 2.39469729 2.00499517 4.79051717 2.5 7.1875 C2.64308594 7.86103516 2.78617187 8.53457031 2.93359375 9.22851562 C3.68069842 12.87509793 4.17352282 16.27648957 4 20 C0.61282089 13.69529267 -0.30131427 7.08088525 0 0 Z " fill="#000000" transform="translate(0,627)"/>
<path d="M0 0 C6.02900687 0.51241107 12.02004643 1.069785 18 2 C18 2.33 18 2.66 18 3 C11.71739294 3.23268915 6.11980533 2.40454548 0 1 C0 0.67 0 0.34 0 0 Z " fill="#000000" transform="translate(146,774)"/>
<path d="M0 0 C5.39795989 1.15058556 10.70987333 2.42421759 16 4 C16 4.33 16 4.66 16 5 C10.13190493 4.47606294 5.45126259 3.23891142 0 1 C0 0.67 0 0.34 0 0 Z " fill="#000000" transform="translate(117,766)"/>
<path d="M0 0 C0.66 0.33 1.32 0.66 2 1 C-0.31 3.31 -2.62 5.62 -5 8 C-5.66 7.67 -6.32 7.34 -7 7 C-4.69 4.69 -2.38 2.38 0 0 Z " fill="#000000" transform="translate(354,720)"/>
<path d="M0 0 C4.12751449 0.60698743 7.3321148 2.03810791 11 4 C8 5 8 5 5.95703125 4.22265625 C5.24933594 3.83980469 4.54164062 3.45695313 3.8125 3.0625 C3.09707031 2.68222656 2.38164063 2.30195312 1.64453125 1.91015625 C1.10183594 1.60980469 0.55914062 1.30945313 0 1 C0 0.67 0 0.34 0 0 Z " fill="#000000" transform="translate(97,758)"/>
<path d="M0 0 C3.82097239 0.53069061 6.06171403 1.49701566 9 4 C5.17902761 3.46930939 2.93828597 2.50298434 0 0 Z " fill="#000000" transform="translate(157,669)"/>
<path d="M0 0 C-4.43076923 2.09230769 -4.43076923 2.09230769 -7.3125 1.625 C-7.869375 1.41875 -8.42625 1.2125 -9 1 C-3.375 -1.125 -3.375 -1.125 0 0 Z " fill="#000000" transform="translate(279,768)"/>
<path d="M0 0 C0.33 0 0.66 0 1 0 C1 3.63 1 7.26 1 11 C0.67 11 0.34 11 0 11 C0 7.37 0 3.74 0 0 Z " fill="#000000" transform="translate(401,608)"/>
<path d="M0 0 C3.3 0 6.6 0 10 0 C10 0.33 10 0.66 10 1 C6.7 1 3.4 1 0 1 C0 0.67 0 0.34 0 0 Z " fill="#000000" transform="translate(418,766)"/>
<path d="M0 0 C1.2077558 3.62326739 0.54311128 4.64146369 -1 8 C-2.2077558 4.37673261 -1.54311128 3.35853631 0 0 Z " fill="#000000" transform="translate(392,658)"/>
<path d="M0 0 C2.5654594 2.5654594 2.54046087 4.47686668 3 8 C0.4345406 5.4345406 0.45953913 3.52313332 0 0 Z " fill="#000000" transform="translate(113,619)"/>
<path d="M0 0 C2.64 0.33 5.28 0.66 8 1 C8 1.33 8 1.66 8 2 C5.36 1.67 2.72 1.34 0 1 C0 0.67 0 0.34 0 0 Z " fill="#000000" transform="translate(138,772)"/>
<path d="M0 0 C2.97 0 5.94 0 9 0 C9 0.33 9 0.66 9 1 C6.03 1 3.06 1 0 1 C0 0.67 0 0.34 0 0 Z " fill="#000000" transform="translate(491,766)"/>
<path d="M0 0 C2.97 0 5.94 0 9 0 C9 0.33 9 0.66 9 1 C6.03 1 3.06 1 0 1 C0 0.67 0 0.34 0 0 Z " fill="#000000" transform="translate(449,766)"/>
<path d="M0 0 C0.33 0 0.66 0 1 0 C1 2.97 1 5.94 1 9 C0.67 9 0.34 9 0 9 C0 6.03 0 3.06 0 0 Z " fill="#000000" transform="translate(443,714)"/>
<path d="M0 0 C0.33 0 0.66 0 1 0 C1 2.97 1 5.94 1 9 C0.67 9 0.34 9 0 9 C0 6.03 0 3.06 0 0 Z " fill="#000000" transform="translate(402,714)"/>
<path d="M0 0 C-1.8125 1.0625 -1.8125 1.0625 -4 2 C-4.99 1.67 -5.98 1.34 -7 1 C-3.375 -1.125 -3.375 -1.125 0 0 Z " fill="#000000" transform="translate(241,671)"/>
<path d="M0 0 C1.32 0.99 2.64 1.98 4 3 C3.67 3.66 3.34 4.32 3 5 C1.5 3.625 1.5 3.625 0 2 C0 1.34 0 0.68 0 0 Z " fill="#000000" transform="translate(37,712)"/>
<path d="M0 0 C2.64 0 5.28 0 8 0 C8 0.33 8 0.66 8 1 C5.36 1 2.72 1 0 1 C0 0.67 0 0.34 0 0 Z " fill="#000000" transform="translate(492,711)"/>
<path d="M0 0 C2.64 0 5.28 0 8 0 C8 0.33 8 0.66 8 1 C5.36 1 2.72 1 0 1 C0 0.67 0 0.34 0 0 Z " fill="#000000" transform="translate(449,711)"/>
<path d="M0 0 C0.625 1.8125 0.625 1.8125 1 4 C0.34 4.99 -0.32 5.98 -1 7 C-0.67 4.69 -0.34 2.38 0 0 Z " fill="#000000" transform="translate(289,610)"/>
<path d="M0 0 C0.99 0.33 1.98 0.66 3 1 C1.02 1.66 -0.96 2.32 -3 3 C-2.01 2.01 -1.02 1.02 0 0 Z " fill="#7727FF" transform="translate(42,88)"/>
<path d="M0 0 C0.99 1.485 0.99 1.485 2 3 C1.67 3.99 1.34 4.98 1 6 C0.67 4.02 0.34 2.04 0 0 Z " fill="#000000" transform="translate(111,613)"/>
<path d="M0 0 C0.33 0 0.66 0 1 0 C1 2.31 1 4.62 1 7 C0.67 7 0.34 7 0 7 C0 4.69 0 2.38 0 0 Z " fill="#000000" transform="translate(291,598)"/>
<path d="M0 0 C2.475 0.99 2.475 0.99 5 2 C4.01 2.495 4.01 2.495 3 3 C2.01 2.01 1.02 1.02 0 0 Z " fill="#8E27FF" transform="translate(246,145)"/>
<path d="M0 0 C0.66 0.33 1.32 0.66 2 1 C0.35 1.66 -1.3 2.32 -3 3 C-2.01 2.01 -1.02 1.02 0 0 Z " fill="#A823D3" transform="translate(16,103)"/>
<path d="M0 0 C0.66 0.33 1.32 0.66 2 1 C0.02 1.99 0.02 1.99 -2 3 C-1.34 2.01 -0.68 1.02 0 0 Z " fill="#000000" transform="translate(342,731)"/>
<path d="M0 0 C0 0.99 0 1.98 0 3 C-0.99 3.495 -0.99 3.495 -2 4 C-1.34 2.68 -0.68 1.36 0 0 Z " fill="#000000" transform="translate(358,716)"/>
<path d="M0 0 C0.66 0.66 1.32 1.32 2 2 C1.67 2.99 1.34 3.98 1 5 C0.67 3.35 0.34 1.7 0 0 Z " fill="#000000" transform="translate(10,666)"/>
<path d="M0 0 C0.66 0.66 1.32 1.32 2 2 C1.67 2.99 1.34 3.98 1 5 C0.67 3.35 0.34 1.7 0 0 Z " fill="#000000" transform="translate(8,661)"/>
<path d="M0 0 C0.66 0.33 1.32 0.66 2 1 C0.02 1.99 0.02 1.99 -2 3 C-1.34 2.01 -0.68 1.02 0 0 Z " fill="#000000" transform="translate(260,657)"/>
<path d="M0 0 C1.98 0.99 1.98 0.99 4 2 C3.01 2 2.02 2 1 2 C0.67 1.34 0.34 0.68 0 0 Z " fill="#000000" transform="translate(138,657)"/>
<path d="M0 0 C0 0.99 0 1.98 0 3 C-0.99 3.495 -0.99 3.495 -2 4 C-1.34 2.68 -0.68 1.36 0 0 Z " fill="#000000" transform="translate(273,644)"/>
<path d="M0 0 C0.33 0.99 0.66 1.98 1 3 C0.34 3.66 -0.32 4.32 -1 5 C-0.67 3.35 -0.34 1.7 0 0 Z " fill="#000000" transform="translate(287,617)"/>
<path d="M0 0 C0.66 0.33 1.32 0.66 2 1 C0.68 1.33 -0.64 1.66 -2 2 C-1.34 1.34 -0.68 0.68 0 0 Z " fill="#000000" transform="translate(297,759)"/>
<path d="M0 0 C1.98 0.99 1.98 0.99 4 2 C2.68 1.67 1.36 1.34 0 1 C0 0.67 0 0.34 0 0 Z " fill="#000000" transform="translate(77,747)"/>
<path d="M0 0 C0.66 1.32 1.32 2.64 2 4 C1.34 3.67 0.68 3.34 0 3 C0 2.01 0 1.02 0 0 Z " fill="#000000" transform="translate(14,676)"/>
<path d="M0 0 C1.65 0 3.3 0 5 0 C5 0.33 5 0.66 5 1 C3.35 1 1.7 1 0 1 C0 0.67 0 0.34 0 0 Z " fill="#000000" transform="translate(172,675)"/>
<path d="M0 0 C0.66 0.33 1.32 0.66 2 1 C0.68 1.33 -0.64 1.66 -2 2 C-1.34 1.34 -0.68 0.68 0 0 Z " fill="#7F33EE" transform="translate(52,203)"/>
<path d="M0 0 C0.66 0.33 1.32 0.66 2 1 C0.68 1.33 -0.64 1.66 -2 2 C-1.34 1.34 -0.68 0.68 0 0 Z " fill="#881DC7" transform="translate(64,196)"/>
<path d="M0 0 C0.66 0.33 1.32 0.66 2 1 C0.68 1.33 -0.64 1.66 -2 2 C-1.34 1.34 -0.68 0.68 0 0 Z " fill="#660CD8" transform="translate(76,189)"/>
<path d="M0 0 C1.98 0.99 1.98 0.99 4 2 C2.68 1.67 1.36 1.34 0 1 C0 0.67 0 0.34 0 0 Z " fill="#772EBF" transform="translate(284,167)"/>
<path d="M0 0 C1.98 0.99 1.98 0.99 4 2 C2.68 1.67 1.36 1.34 0 1 C0 0.67 0 0.34 0 0 Z " fill="#902EEE" transform="translate(272,160)"/>
<path d="M0 0 C0.99 0.33 1.98 0.66 3 1 C1.68 1.33 0.36 1.66 -1 2 C-0.67 1.34 -0.34 0.68 0 0 Z " fill="#A111E5" transform="translate(54,81)"/>
<path d="M0 0 C0.99 0.33 1.98 0.66 3 1 C1.68 1.33 0.36 1.66 -1 2 C-0.67 1.34 -0.34 0.68 0 0 Z " fill="#882AFF" transform="translate(66,74)"/>
<path d="M0 0 C1.32 0.33 2.64 0.66 4 1 C3.01 1.495 3.01 1.495 2 2 C1.34 1.34 0.68 0.68 0 0 Z " fill="#9D2EFF" transform="translate(295,53)"/>
<path d="M0 0 C1.32 0.33 2.64 0.66 4 1 C3.01 1.495 3.01 1.495 2 2 C1.34 1.34 0.68 0.68 0 0 Z " fill="#6E11CC" transform="translate(269,38)"/>
<path d="M0 0 C1.32 0.33 2.64 0.66 4 1 C3.01 1.495 3.01 1.495 2 2 C1.34 1.34 0.68 0.68 0 0 Z " fill="#7722EE" transform="translate(257,31)"/>
<path d="M0 0 C4 1 4 1 4 1 Z " fill="#000000" transform="translate(257,772)"/>
<path d="M0 0 C4 1 4 1 4 1 Z " fill="#000000" transform="translate(261,771)"/>
<path d="M0 0 C4 1 4 1 4 1 Z " fill="#000000" transform="translate(133,771)"/>
<path d="M0 0 C4 1 4 1 4 1 Z " fill="#000000" transform="translate(266,770)"/>
<path d="M0 0 C0 3 0 3 0 3 Z " fill="#000000" transform="translate(479,752)"/>
<path d="M0 0 C0.66 0.33 1.32 0.66 2 1 C1.01 1 0.02 1 -1 1 C-0.67 0.67 -0.34 0.34 0 0 Z " fill="#000000" transform="translate(311,752)"/>
<path d="M0 0 C0.99 0.33 1.98 0.66 3 1 C2.01 1 1.02 1 0 1 C0 0.67 0 0.34 0 0 Z " fill="#000000" transform="translate(86,752)"/>
<path d="M0 0 C0.99 0.495 0.99 0.495 2 1 C1.67 1.66 1.34 2.32 1 3 C0.67 2.01 0.34 1.02 0 0 Z " fill="#000000" transform="translate(465,746)"/>
<path d="M0 0 C0.66 0.33 1.32 0.66 2 1 C1.01 1 0.02 1 -1 1 C-0.67 0.67 -0.34 0.34 0 0 Z " fill="#000000" transform="translate(320,747)"/>
<path d="M0 0 C0.66 0.33 1.32 0.66 2 1 C1.01 1 0.02 1 -1 1 C-0.67 0.67 -0.34 0.34 0 0 Z " fill="#000000" transform="translate(323,745)"/>
<path d="M0 0 C0 3 0 3 0 3 Z " fill="#000000" transform="translate(485,743)"/>
<path d="M0 0 C0.66 0.33 1.32 0.66 2 1 C1.01 1 0.02 1 -1 1 C-0.67 0.67 -0.34 0.34 0 0 Z " fill="#000000" transform="translate(333,738)"/>
<path d="M0 0 C0.99 0.33 1.98 0.66 3 1 C2.01 1 1.02 1 0 1 C0 0.67 0 0.34 0 0 Z " fill="#000000" transform="translate(63,737)"/>
<path d="M0 0 C0.99 0.495 0.99 0.495 2 1 C1.67 1.66 1.34 2.32 1 3 C0.67 2.01 0.34 1.02 0 0 Z " fill="#000000" transform="translate(470,731)"/>
<path d="M0 0 C0.99 0.495 0.99 0.495 2 1 C1.67 1.66 1.34 2.32 1 3 C0.67 2.01 0.34 1.02 0 0 Z " fill="#000000" transform="translate(468,728)"/>
<path d="M0 0 C0 3 0 3 0 3 Z " fill="#000000" transform="translate(480,728)"/>
<path d="M0 0 C0.99 0.33 1.98 0.66 3 1 C2.01 1 1.02 1 0 1 C0 0.67 0 0.34 0 0 Z " fill="#000000" transform="translate(52,728)"/>
<path d="M0 0 C0.99 0.495 0.99 0.495 2 1 C1.67 1.66 1.34 2.32 1 3 C0.67 2.01 0.34 1.02 0 0 Z " fill="#000000" transform="translate(463,720)"/>
<path d="M0 0 C0.99 0.495 0.99 0.495 2 1 C1.67 1.66 1.34 2.32 1 3 C0.67 2.01 0.34 1.02 0 0 Z " fill="#000000" transform="translate(461,717)"/>
<path d="M0 0 C0 3 0 3 0 3 Z " fill="#000000" transform="translate(487,717)"/>
<path d="M0 0 C0 3 0 3 0 3 Z " fill="#000000" transform="translate(369,703)"/>
<path d="M0 0 C0.99 0.495 0.99 0.495 2 1 C1.67 1.66 1.34 2.32 1 3 C0.67 2.01 0.34 1.02 0 0 Z " fill="#000000" transform="translate(29,702)"/>
<path d="M0 0 C0.99 0.495 0.99 0.495 2 1 C1.67 1.66 1.34 2.32 1 3 C0.67 2.01 0.34 1.02 0 0 Z " fill="#000000" transform="translate(27,699)"/>
<path d="M0 0 C0.99 0.495 0.99 0.495 2 1 C1.67 1.66 1.34 2.32 1 3 C0.67 2.01 0.34 1.02 0 0 Z " fill="#000000" transform="translate(23,693)"/>
<path d="M0 0 C0.99 0.495 0.99 0.495 2 1 C1.67 1.66 1.34 2.32 1 3 C0.67 2.01 0.34 1.02 0 0 Z " fill="#000000" transform="translate(21,690)"/>
<path d="M0 0 C0 3 0 3 0 3 Z " fill="#000000" transform="translate(382,682)"/>
<path d="M0 0 C0.66 0.33 1.32 0.66 2 1 C1.01 1 0.02 1 -1 1 C-0.67 0.67 -0.34 0.34 0 0 Z " fill="#000000" transform="translate(250,664)"/>
<path d="M0 0 C0.99 0.33 1.98 0.66 3 1 C2.01 1 1.02 1 0 1 C0 0.67 0 0.34 0 0 Z " fill="#000000" transform="translate(148,664)"/>
<path d="M0 0 C0.66 0.33 1.32 0.66 2 1 C1.01 1 0.02 1 -1 1 C-0.67 0.67 -0.34 0.34 0 0 Z " fill="#000000" transform="translate(253,662)"/>
<path d="M0 0 C0.99 0.33 1.98 0.66 3 1 C2.01 1 1.02 1 0 1 C0 0.67 0 0.34 0 0 Z " fill="#000000" transform="translate(145,662)"/>
<path d="M0 0 C1 4 1 4 1 4 Z " fill="#000000" transform="translate(393,654)"/>
<path d="M0 0 C1 4 1 4 1 4 Z " fill="#000000" transform="translate(6,654)"/>
<path d="M0 0 C1 4 1 4 1 4 Z " fill="#000000" transform="translate(394,650)"/>
<path d="M0 0 C1 4 1 4 1 4 Z " fill="#000000" transform="translate(5,650)"/>
<path d="M0 0 C1 4 1 4 1 4 Z " fill="#000000" transform="translate(395,646)"/>
<path d="M0 0 C0.99 0.495 0.99 0.495 2 1 C1.67 1.66 1.34 2.32 1 3 C0.67 2.01 0.34 1.02 0 0 Z " fill="#000000" transform="translate(127,645)"/>
<path d="M0 0 C0.99 0.495 0.99 0.495 2 1 C1.67 1.66 1.34 2.32 1 3 C0.67 2.01 0.34 1.02 0 0 Z " fill="#000000" transform="translate(123,640)"/>
<path d="M0 0 C0 3 0 3 0 3 Z " fill="#000000" transform="translate(276,640)"/>
<path d="M0 0 C0.99 0.495 0.99 0.495 2 1 C1.67 1.66 1.34 2.32 1 3 C0.67 2.01 0.34 1.02 0 0 Z " fill="#000000" transform="translate(120,635)"/>
<path d="M0 0 C0 3 0 3 0 3 Z " fill="#000000" transform="translate(279,635)"/>
<path d="M0 0 C0.99 0.495 0.99 0.495 2 1 C1.67 1.66 1.34 2.32 1 3 C0.67 2.01 0.34 1.02 0 0 Z " fill="#000000" transform="translate(117,630)"/>
<path d="M0 0 C0 3 0 3 0 3 Z " fill="#000000" transform="translate(282,630)"/>
<path d="M0 0 C1 4 1 4 1 4 Z " fill="#000000" transform="translate(110,609)"/>
<path d="M0 0 C1 4 1 4 1 4 Z " fill="#000000" transform="translate(290,606)"/>
<path d="M0 0 C1 4 1 4 1 4 Z " fill="#000000" transform="translate(109,605)"/>
<path d="M0 0 C0.99 0.33 1.98 0.66 3 1 C2.01 1 1.02 1 0 1 C0 0.67 0 0.34 0 0 Z " fill="#B032F2" transform="translate(395,231)"/>
<path d="M0 0 C0.66 0.33 1.32 0.66 2 1 C1.01 1 0.02 1 -1 1 C-0.67 0.67 -0.34 0.34 0 0 Z " fill="#CD27F4" transform="translate(5,230)"/>
<path d="M0 0 C0.99 0.33 1.98 0.66 3 1 C2.01 1 1.02 1 0 1 C0 0.67 0 0.34 0 0 Z " fill="#A61CDF" transform="translate(383,224)"/>
<path d="M0 0 C0.66 0.33 1.32 0.66 2 1 C1.01 1 0.02 1 -1 1 C-0.67 0.67 -0.34 0.34 0 0 Z " fill="#BD37FF" transform="translate(17,223)"/>
<path d="M0 0 C0.99 0.33 1.98 0.66 3 1 C2.01 1 1.02 1 0 1 C0 0.67 0 0.34 0 0 Z " fill="#7D2CEA" transform="translate(378,221)"/>
<path d="M0 0 C0.99 0.33 1.98 0.66 3 1 C2.01 1 1.02 1 0 1 C0 0.67 0 0.34 0 0 Z " fill="#7226E5" transform="translate(369,216)"/>
<path d="M0 0 C0.99 0.33 1.98 0.66 3 1 C2.01 1 1.02 1 0 1 C0 0.67 0 0.34 0 0 Z " fill="#B71DFF" transform="translate(366,214)"/>
<path d="M0 0 C0.66 0.33 1.32 0.66 2 1 C1.01 1 0.02 1 -1 1 C-0.67 0.67 -0.34 0.34 0 0 Z " fill="#DC22FF" transform="translate(34,213)"/>
<path d="M0 0 C0.99 0.33 1.98 0.66 3 1 C2.01 1 1.02 1 0 1 C0 0.67 0 0.34 0 0 Z " fill="#B62EFF" transform="translate(357,209)"/>
<path d="M0 0 C0.66 0.33 1.32 0.66 2 1 C1.01 1 0.02 1 -1 1 C-0.67 0.67 -0.34 0.34 0 0 Z " fill="#AE23EB" transform="translate(43,208)"/>
<path d="M0 0 C0.99 0.33 1.98 0.66 3 1 C2.01 1 1.02 1 0 1 C0 0.67 0 0.34 0 0 Z " fill="#BA1AFF" transform="translate(345,202)"/>
<path d="M0 0 C0.66 0.33 1.32 0.66 2 1 C1.01 1 0.02 1 -1 1 C-0.67 0.67 -0.34 0.34 0 0 Z " fill="#8F13F6" transform="translate(55,201)"/>
<path d="M0 0 C0.99 0.33 1.98 0.66 3 1 C2.01 1 1.02 1 0 1 C0 0.67 0 0.34 0 0 Z " fill="#9740B7" transform="translate(340,199)"/>
<path d="M0 0 C0.99 0.33 1.98 0.66 3 1 C2.01 1 1.02 1 0 1 C0 0.67 0 0.34 0 0 Z " fill="#7724FF" transform="translate(331,194)"/>
<path d="M0 0 C0.99 0.33 1.98 0.66 3 1 C2.01 1 1.02 1 0 1 C0 0.67 0 0.34 0 0 Z " fill="#8D1CF7" transform="translate(328,192)"/>
<path d="M0 0 C0.99 0.33 1.98 0.66 3 1 C2.01 1 1.02 1 0 1 C0 0.67 0 0.34 0 0 Z " fill="#9F2ADF" transform="translate(319,187)"/>
<path d="M0 0 C0.66 0.33 1.32 0.66 2 1 C1.01 1 0.02 1 -1 1 C-0.67 0.67 -0.34 0.34 0 0 Z " fill="#B723F4" transform="translate(81,186)"/>
<path d="M0 0 C0.66 0.33 1.32 0.66 2 1 C1.01 1 0.02 1 -1 1 C-0.67 0.67 -0.34 0.34 0 0 Z " fill="#6F30DF" transform="translate(90,181)"/>
<path d="M0 0 C0.99 0.33 1.98 0.66 3 1 C2.01 1 1.02 1 0 1 C0 0.67 0 0.34 0 0 Z " fill="#AA15F6" transform="translate(307,180)"/>
<path d="M0 0 C0.66 0.33 1.32 0.66 2 1 C1.01 1 0.02 1 -1 1 C-0.67 0.67 -0.34 0.34 0 0 Z " fill="#B11BF6" transform="translate(93,179)"/>
<path d="M0 0 C0.66 0.33 1.32 0.66 2 1 C1.01 1 0.02 1 -1 1 C-0.67 0.67 -0.34 0.34 0 0 Z " fill="#B022F2" transform="translate(102,174)"/>
<path d="M0 0 C0.99 0.33 1.98 0.66 3 1 C2.01 1 1.02 1 0 1 C0 0.67 0 0.34 0 0 Z " fill="#B022F6" transform="translate(293,172)"/>
<path d="M0 0 C0.66 0.33 1.32 0.66 2 1 C1.01 1 0.02 1 -1 1 C-0.67 0.67 -0.34 0.34 0 0 Z " fill="#D022FF" transform="translate(114,167)"/>
<path d="M0 0 C0.99 0.33 1.98 0.66 3 1 C2.01 1 1.02 1 0 1 C0 0.67 0 0.34 0 0 Z " fill="#9F2AE9" transform="translate(281,165)"/>
<path d="M0 0 C0.66 0.33 1.32 0.66 2 1 C1.01 1 0.02 1 -1 1 C-0.67 0.67 -0.34 0.34 0 0 Z " fill="#C532F7" transform="translate(119,164)"/>
<path d="M0 0 C0.66 0.33 1.32 0.66 2 1 C1.01 1 0.02 1 -1 1 C-0.67 0.67 -0.34 0.34 0 0 Z " fill="#AC29E2" transform="translate(128,159)"/>
<path d="M0 0 C0.99 0.33 1.98 0.66 3 1 C2.01 1 1.02 1 0 1 C0 0.67 0 0.34 0 0 Z " fill="#AA25E9" transform="translate(260,153)"/>
<path d="M0 0 C0.66 0.33 1.32 0.66 2 1 C1.01 1 0.02 1 -1 1 C-0.67 0.67 -0.34 0.34 0 0 Z " fill="#9A1AD4" transform="translate(140,152)"/>
<path d="M0 0 C0.99 0.33 1.98 0.66 3 1 C2.01 1 1.02 1 0 1 C0 0.67 0 0.34 0 0 Z " fill="#BD2CF7" transform="translate(255,150)"/>
<path d="M0 0 C0.66 0.33 1.32 0.66 2 1 C1.01 1 0.02 1 -1 1 C-0.67 0.67 -0.34 0.34 0 0 Z " fill="#7724A8" transform="translate(154,144)"/>
<path d="M0 0 C0.99 0.33 1.98 0.66 3 1 C2.01 1 1.02 1 0 1 C0 0.67 0 0.34 0 0 Z " fill="#B71DFF" transform="translate(243,143)"/>
<path d="M0 0 C0.66 0.33 1.32 0.66 2 1 C1.01 1 0.02 1 -1 1 C-0.67 0.67 -0.34 0.34 0 0 Z " fill="#AD1CFF" transform="translate(157,142)"/>
<path d="M0 0 C0.99 0.33 1.98 0.66 3 1 C2.01 1 1.02 1 0 1 C0 0.67 0 0.34 0 0 Z " fill="#B032F2" transform="translate(234,138)"/>
<path d="M0 0 C0.66 0.33 1.32 0.66 2 1 C1.01 1 0.02 1 -1 1 C-0.67 0.67 -0.34 0.34 0 0 Z " fill="#BD27E4" transform="translate(166,137)"/>
<path d="M0 0 C0.99 0.33 1.98 0.66 3 1 C2.01 1 1.02 1 0 1 C0 0.67 0 0.34 0 0 Z " fill="#B022DF" transform="translate(222,131)"/>
<path d="M0 0 C0.66 0.33 1.32 0.66 2 1 C1.01 1 0.02 1 -1 1 C-0.67 0.67 -0.34 0.34 0 0 Z " fill="#B017FF" transform="translate(178,130)"/>
<path d="M0 0 C0.99 0.33 1.98 0.66 3 1 C2.01 1 1.02 1 0 1 C0 0.67 0 0.34 0 0 Z " fill="#B832F7" transform="translate(217,128)"/>
<path d="M0 0 C0.99 0.33 1.98 0.66 3 1 C2.01 1 1.02 1 0 1 C0 0.67 0 0.34 0 0 Z " fill="#BC29FF" transform="translate(208,123)"/>
<path d="M0 0 C0.66 0.33 1.32 0.66 2 1 C1.01 1 0.02 1 -1 1 C-0.67 0.67 -0.34 0.34 0 0 Z " fill="#7724FF" transform="translate(192,122)"/>
<path d="M0 0 C0.99 0.33 1.98 0.66 3 1 C2.01 1 1.02 1 0 1 C0 0.67 0 0.34 0 0 Z " fill="#B21AF7" transform="translate(205,121)"/>
<path d="M0 0 C0.99 0.33 1.98 0.66 3 1 C2.01 1 1.02 1 0 1 C0 0.67 0 0.34 0 0 Z " fill="#BB2CF2" transform="translate(398,112)"/>
<path d="M0 0 C0.66 0.33 1.32 0.66 2 1 C1.01 1 0.02 1 -1 1 C-0.67 0.67 -0.34 0.34 0 0 Z " fill="#C032FF" transform="translate(2,111)"/>
<path d="M0 0 C0.99 0.33 1.98 0.66 3 1 C2.01 1 1.02 1 0 1 C0 0.67 0 0.34 0 0 Z " fill="#7720F7" transform="translate(389,107)"/>
<path d="M0 0 C0.66 0.33 1.32 0.66 2 1 C1.01 1 0.02 1 -1 1 C-0.67 0.67 -0.34 0.34 0 0 Z " fill="#BC30EC" transform="translate(11,106)"/>
<path d="M0 0 C0.99 0.33 1.98 0.66 3 1 C2.01 1 1.02 1 0 1 C0 0.67 0 0.34 0 0 Z " fill="#7017F2" transform="translate(384,104)"/>
<path d="M0 0 C0.99 0.33 1.98 0.66 3 1 C2.01 1 1.02 1 0 1 C0 0.67 0 0.34 0 0 Z " fill="#B017D4" transform="translate(372,97)"/>
<path d="M0 0 C0.66 0.33 1.32 0.66 2 1 C1.01 1 0.02 1 -1 1 C-0.67 0.67 -0.34 0.34 0 0 Z " fill="#BA25FF" transform="translate(28,96)"/>
<path d="M0 0 C0.66 0.33 1.32 0.66 2 1 C1.01 1 0.02 1 -1 1 C-0.67 0.67 -0.34 0.34 0 0 Z " fill="#B112F6" transform="translate(37,91)"/>
<path d="M0 0 C0.99 0.33 1.98 0.66 3 1 C2.01 1 1.02 1 0 1 C0 0.67 0 0.34 0 0 Z " fill="#B226F2" transform="translate(360,90)"/>
<path d="M0 0 C0.99 0.33 1.98 0.66 3 1 C2.01 1 1.02 1 0 1 C0 0.67 0 0.34 0 0 Z " fill="#7832EA" transform="translate(351,85)"/>
<path d="M0 0 C0.66 0.33 1.32 0.66 2 1 C1.01 1 0.02 1 -1 1 C-0.67 0.67 -0.34 0.34 0 0 Z " fill="#C232FF" transform="translate(49,84)"/>
<path d="M0 0 C0.99 0.33 1.98 0.66 3 1 C2.01 1 1.02 1 0 1 C0 0.67 0 0.34 0 0 Z " fill="#A61CCF" transform="translate(346,82)"/>
<path d="M0 0 C0.99 0.33 1.98 0.66 3 1 C2.01 1 1.02 1 0 1 C0 0.67 0 0.34 0 0 Z " fill="#C032FF" transform="translate(334,75)"/>
<path d="M0 0 C0.99 0.33 1.98 0.66 3 1 C2.01 1 1.02 1 0 1 C0 0.67 0 0.34 0 0 Z " fill="#921AF7" transform="translate(325,70)"/>
<path d="M0 0 C0.66 0.33 1.32 0.66 2 1 C1.01 1 0.02 1 -1 1 C-0.67 0.67 -0.34 0.34 0 0 Z " fill="#8F13F6" transform="translate(75,69)"/>
<path d="M0 0 C0.99 0.33 1.98 0.66 3 1 C2.01 1 1.02 1 0 1 C0 0.67 0 0.34 0 0 Z " fill="#BF30FF" transform="translate(322,68)"/>
<path d="M0 0 C0.99 0.33 1.98 0.66 3 1 C2.01 1 1.02 1 0 1 C0 0.67 0 0.34 0 0 Z " fill="#BD2CF7" transform="translate(313,63)"/>
<path d="M0 0 C0.66 0.33 1.32 0.66 2 1 C1.01 1 0.02 1 -1 1 C-0.67 0.67 -0.34 0.34 0 0 Z " fill="#BE23EB" transform="translate(87,62)"/>
<path d="M0 0 C0.99 0.33 1.98 0.66 3 1 C2.01 1 1.02 1 0 1 C0 0.67 0 0.34 0 0 Z " fill="#D925FF" transform="translate(308,60)"/>
<path d="M0 0 C0.66 0.33 1.32 0.66 2 1 C1.01 1 0.02 1 -1 1 C-0.67 0.67 -0.34 0.34 0 0 Z " fill="#D31FF2" transform="translate(96,57)"/>
<path d="M0 0 C0.99 0.33 1.98 0.66 3 1 C2.01 1 1.02 1 0 1 C0 0.67 0 0.34 0 0 Z " fill="#9929E9" transform="translate(287,48)"/>
<path d="M0 0 C0.66 0.33 1.32 0.66 2 1 C1.01 1 0.02 1 -1 1 C-0.67 0.67 -0.34 0.34 0 0 Z " fill="#9017FF" transform="translate(113,47)"/>
<path d="M0 0 C0.99 0.33 1.98 0.66 3 1 C2.01 1 1.02 1 0 1 C0 0.67 0 0.34 0 0 Z " fill="#7A22FF" transform="translate(275,41)"/>
<path d="M0 0 C0.66 0.33 1.32 0.66 2 1 C1.01 1 0.02 1 -1 1 C-0.67 0.67 -0.34 0.34 0 0 Z " fill="#C027F4" transform="translate(125,40)"/>
<path d="M0 0 C0.66 0.33 1.32 0.66 2 1 C1.01 1 0.02 1 -1 1 C-0.67 0.67 -0.34 0.34 0 0 Z " fill="#AD1CF7" transform="translate(134,35)"/>
<path d="M0 0 C0.99 0.33 1.98 0.66 3 1 C2.01 1 1.02 1 0 1 C0 0.67 0 0.34 0 0 Z " fill="#CE13EB" transform="translate(261,33)"/>
<path d="M0 0 C0.66 0.33 1.32 0.66 2 1 C1.01 1 0.02 1 -1 1 C-0.67 0.67 -0.34 0.34 0 0 Z " fill="#6A1AF4" transform="translate(139,32)"/>
<path d="M0 0 C0.99 0.33 1.98 0.66 3 1 C2.01 1 1.02 1 0 1 C0 0.67 0 0.34 0 0 Z " fill="#9F2ADF" transform="translate(249,26)"/>
<path d="M0 0 C0.66 0.33 1.32 0.66 2 1 C1.01 1 0.02 1 -1 1 C-0.67 0.67 -0.34 0.34 0 0 Z " fill="#D51CFF" transform="translate(151,25)"/>
<path d="M0 0 C0.66 0.33 1.32 0.66 2 1 C1.01 1 0.02 1 -1 1 C-0.67 0.67 -0.34 0.34 0 0 Z " fill="#AC19EE" transform="translate(160,20)"/>
<path d="M0 0 C0.99 0.33 1.98 0.66 3 1 C2.01 1 1.02 1 0 1 C0 0.67 0 0.34 0 0 Z " fill="#B624F2" transform="translate(237,19)"/>
<path d="M0 0 C0.66 0.33 1.32 0.66 2 1 C1.01 1 0.02 1 -1 1 C-0.67 0.67 -0.34 0.34 0 0 Z " fill="#BC29F2" transform="translate(163,18)"/>
<path d="M0 0 C0.66 0.33 1.32 0.66 2 1 C1.01 1 0.02 1 -1 1 C-0.67 0.67 -0.34 0.34 0 0 Z " fill="#AD2CE7" transform="translate(172,13)"/>
<path d="M0 0 C0.99 0.33 1.98 0.66 3 1 C2.01 1 1.02 1 0 1 C0 0.67 0 0.34 0 0 Z " fill="#B017F2" transform="translate(223,11)"/>
<path d="M0 0 C0.66 0.33 1.32 0.66 2 1 C1.01 1 0.02 1 -1 1 C-0.67 0.67 -0.34 0.34 0 0 Z " fill="#D022F2" transform="translate(177,10)"/>
<path d="M0 0 C0.99 0.33 1.98 0.66 3 1 C2.01 1 1.02 1 0 1 C0 0.67 0 0.34 0 0 Z " fill="#B929EF" transform="translate(211,4)"/>
<path d="M0 0 C0.66 0.33 1.32 0.66 2 1 C1.01 1 0.02 1 -1 1 C-0.67 0.67 -0.34 0.34 0 0 Z " fill="#D945FF" transform="translate(189,3)"/>
<path d="M0 0 C3 1 3 1 3 1 Z " fill="#000000" transform="translate(279,766)"/>
<path d="M0 0 C3 1 3 1 3 1 Z " fill="#000000" transform="translate(282,765)"/>
<path d="M0 0 C3 1 3 1 3 1 Z " fill="#000000" transform="translate(114,765)"/>
<path d="M0 0 C3 1 3 1 3 1 Z " fill="#000000" transform="translate(288,763)"/>
<path d="M0 0 C3 1 3 1 3 1 Z " fill="#000000" transform="translate(108,763)"/>
<path d="" fill="#000000" transform="translate(0,0)"/>
<path d="M0 0 C3 1 3 1 3 1 Z " fill="#000000" transform="translate(228,674)"/>
<path d="M0 0 C3 1 3 1 3 1 Z " fill="#000000" transform="translate(169,674)"/>
<path d="M0 0 C3 1 3 1 3 1 Z " fill="#000000" transform="translate(231,673)"/>
<path d="M0 0 C3 1 3 1 3 1 Z " fill="#000000" transform="translate(166,673)"/>
<path d="M0 0 C3 1 3 1 3 1 Z " fill="#000000" transform="translate(243,668)"/>
<path d="" fill="#000000" transform="translate(0,0)"/>
<path d="" fill="#000000" transform="translate(0,0)"/>
<path d="" fill="#000000" transform="translate(0,0)"/>
<path d="" fill="#000000" transform="translate(0,0)"/>
<path d="M0 0 C3 1 3 1 3 1 Z " fill="#7F00FF" transform="translate(398,233)"/>
<path d="M0 0 C2 1 2 1 2 1 Z " fill="#000000" transform="translate(285,764)"/>
<path d="M0 0 C2 1 2 1 2 1 Z " fill="#000000" transform="translate(112,764)"/>
<path d="M0 0 C2 1 2 1 2 1 Z " fill="#000000" transform="translate(291,762)"/>
<path d="M0 0 C2 1 2 1 2 1 Z " fill="#000000" transform="translate(293,761)"/>
<path d="M0 0 C2 1 2 1 2 1 Z " fill="#000000" transform="translate(474,758)"/>
<path d="M0 0 C2 1 2 1 2 1 Z " fill="#000000" transform="translate(299,758)"/>
<path d="M0 0 C2 1 2 1 2 1 Z " fill="#000000" transform="translate(301,757)"/>
<path d="" fill="#000000" transform="translate(0,0)"/>
<path d="" fill="#000000" transform="translate(0,0)"/>
<path d="M0 0 C2 1 2 1 2 1 Z " fill="#000000" transform="translate(304,756)"/>
<path d="M0 0 C2 1 2 1 2 1 Z " fill="#000000" transform="translate(93,756)"/>
<path d="M0 0 C2 1 2 1 2 1 Z " fill="#000000" transform="translate(306,755)"/>
<path d="M0 0 C2 1 2 1 2 1 Z " fill="#000000" transform="translate(91,755)"/>
<path d="" fill="#000000" transform="translate(0,0)"/>
<path d="M0 0 C2 1 2 1 2 1 Z " fill="#000000" transform="translate(308,754)"/>
<path d="M0 0 C2 1 2 1 2 1 Z " fill="#000000" transform="translate(89,754)"/>
<path d="" fill="#000000" transform="translate(0,0)"/>
<path d="" fill="#000000" transform="translate(0,0)"/>
<path d="M0 0 C2 1 2 1 2 1 Z " fill="#000000" transform="translate(313,751)"/>
<path d="M0 0 C2 1 2 1 2 1 Z " fill="#000000" transform="translate(84,751)"/>
<path d="M0 0 C2 1 2 1 2 1 Z " fill="#000000" transform="translate(315,750)"/>
<path d="M0 0 C2 1 2 1 2 1 Z " fill="#000000" transform="translate(317,749)"/>
<path d="" fill="#000000" transform="translate(0,0)"/>
<path d="" fill="#000000" transform="translate(0,0)"/>
<path d="M0 0 C2 1 2 1 2 1 Z " fill="#000000" transform="translate(74,745)"/>
<path d="M0 0 C2 1 2 1 2 1 Z " fill="#000000" transform="translate(326,743)"/>
<path d="M0 0 C2 1 2 1 2 1 Z " fill="#000000" transform="translate(71,743)"/>
<path d="" fill="#000000" transform="translate(0,0)"/>
<path d="M0 0 C2 1 2 1 2 1 Z " fill="#000000" transform="translate(329,741)"/>
<path d="M0 0 C2 1 2 1 2 1 Z " fill="#000000" transform="translate(68,741)"/>
<path d="" fill="#000000" transform="translate(0,0)"/>
<path d="" fill="#000000" transform="translate(0,0)"/>
<path d="" fill="#000000" transform="translate(0,0)"/>
<path d="" fill="#000000" transform="translate(0,0)"/>
<path d="M0 0 C2 1 2 1 2 1 Z " fill="#000000" transform="translate(337,735)"/>
<path d="" fill="#000000" transform="translate(0,0)"/>
<path d="M0 0 C2 1 2 1 2 1 Z " fill="#000000" transform="translate(59,734)"/>
<path d="" fill="#000000" transform="translate(0,0)"/>
<path d="" fill="#000000" transform="translate(0,0)"/>
<path d="" fill="#000000" transform="translate(0,0)"/>
<path d="" fill="#000000" transform="translate(0,0)"/>
<path d="" fill="#000000" transform="translate(0,0)"/>
<path d="" fill="#000000" transform="translate(0,0)"/>
<path d="" fill="#000000" transform="translate(0,0)"/>
<path d="" fill="#000000" transform="translate(0,0)"/>
<path d="" fill="#000000" transform="translate(0,0)"/>
<path d="" fill="#000000" transform="translate(0,0)"/>
<path d="" fill="#000000" transform="translate(0,0)"/>
<path d="" fill="#000000" transform="translate(0,0)"/>
<path d="" fill="#000000" transform="translate(0,0)"/>
<path d="" fill="#000000" transform="translate(0,0)"/>
<path d="" fill="#000000" transform="translate(0,0)"/>
<path d="" fill="#000000" transform="translate(0,0)"/>
<path d="" fill="#000000" transform="translate(0,0)"/>
<path d="" fill="#000000" transform="translate(0,0)"/>
<path d="" fill="#000000" transform="translate(0,0)"/>
<path d="" fill="#000000" transform="translate(0,0)"/>
<path d="" fill="#000000" transform="translate(0,0)"/>
<path d="" fill="#000000" transform="translate(0,0)"/>
<path d="" fill="#000000" transform="translate(0,0)"/>
<path d="" fill="#000000" transform="translate(0,0)"/>
<path d="" fill="#000000" transform="translate(0,0)"/>
<path d="" fill="#000000" transform="translate(0,0)"/>
<path d="" fill="#000000" transform="translate(0,0)"/>
<path d="" fill="#000000" transform="translate(0,0)"/>
<path d="M0 0 C2 1 2 1 2 1 Z " fill="#000000" transform="translate(241,669)"/>
<path d="M0 0 C2 1 2 1 2 1 Z " fill="#000000" transform="translate(155,668)"/>
<path d="" fill="#000000" transform="translate(0,0)"/>
<path d="M0 0 C2 1 2 1 2 1 Z " fill="#000000" transform="translate(247,666)"/>
<path d="M0 0 C2 1 2 1 2 1 Z " fill="#000000" transform="translate(151,666)"/>
<path d="M0 0 C2 1 2 1 2 1 Z " fill="#000000" transform="translate(255,661)"/>
<path d="M0 0 C2 1 2 1 2 1 Z " fill="#000000" transform="translate(143,661)"/>
<path d="" fill="#000000" transform="translate(0,0)"/>
<path d="" fill="#000000" transform="translate(0,0)"/>
<path d="" fill="#000000" transform="translate(0,0)"/>
<path d="" fill="#000000" transform="translate(0,0)"/>
<path d="" fill="#000000" transform="translate(0,0)"/>
<path d="" fill="#000000" transform="translate(0,0)"/>
<path d="M0 0 C2 1 2 1 2 1 Z " fill="#8000FF" transform="translate(0,233)"/>
<path d="M0 0 C2 1 2 1 2 1 Z " fill="#952AFF" transform="translate(2,232)"/>
<path d="M0 0 C2 1 2 1 2 1 Z " fill="#B03CD4" transform="translate(393,230)"/>
<path d="M0 0 C2 1 2 1 2 1 Z " fill="#8F20EF" transform="translate(7,229)"/>
<path d="M0 0 C2 1 2 1 2 1 Z " fill="#A144FF" transform="translate(390,228)"/>
<path d="M0 0 C2 1 2 1 2 1 Z " fill="#4C19FF" transform="translate(388,227)"/>
<path d="M0 0 C2 1 2 1 2 1 Z " fill="#8020FF" transform="translate(10,227)"/>
<path d="M0 0 C2 1 2 1 2 1 Z " fill="#D42AFF" transform="translate(386,226)"/>
<path d="M0 0 C2 1 2 1 2 1 Z " fill="#952AFF" transform="translate(12,226)"/>
<path d="M0 0 C2 1 2 1 2 1 Z " fill="#AA55D4" transform="translate(14,225)"/>
<path d="M0 0 C2 1 2 1 2 1 Z " fill="#9535DF" transform="translate(381,223)"/>
<path d="M0 0 C2 1 2 1 2 1 Z " fill="#B04FFF" transform="translate(19,222)"/>
<path d="M0 0 C2 1 2 1 2 1 Z " fill="#CC19FF" transform="translate(376,220)"/>
<path d="M0 0 C2 1 2 1 2 1 Z " fill="#952AFF" transform="translate(22,220)"/>
<path d="M0 0 C2 1 2 1 2 1 Z " fill="#D42AFF" transform="translate(374,219)"/>
<path d="M0 0 C2 1 2 1 2 1 Z " fill="#952AFF" transform="translate(24,219)"/>
<path d="M0 0 C2 1 2 1 2 1 Z " fill="#952ABF" transform="translate(372,218)"/>
<path d="M0 0 C2 1 2 1 2 1 Z " fill="#AA55D4" transform="translate(26,218)"/>
<path d="M0 0 C2 1 2 1 2 1 Z " fill="#CC59FF" transform="translate(28,217)"/>
<path d="M0 0 C2 1 2 1 2 1 Z " fill="#B435FF" transform="translate(31,215)"/>
<path d="M0 0 C2 1 2 1 2 1 Z " fill="#8C19FF" transform="translate(364,213)"/>
<path d="M0 0 C2 1 2 1 2 1 Z " fill="#BF20DF" transform="translate(362,212)"/>
<path d="M0 0 C2 1 2 1 2 1 Z " fill="#BF40FF" transform="translate(36,212)"/>
<path d="M0 0 C2 1 2 1 2 1 Z " fill="#952AFF" transform="translate(360,211)"/>
<path d="M0 0 C2 1 2 1 2 1 Z " fill="#952AD4" transform="translate(38,211)"/>
<path d="M0 0 C2 1 2 1 2 1 Z " fill="#B44AFF" transform="translate(40,210)"/>
<path d="M0 0 C2 1 2 1 2 1 Z " fill="#A44AC4" transform="translate(355,208)"/>
<path d="M0 0 C2 1 2 1 2 1 Z " fill="#8912FF" transform="translate(45,207)"/>
<path d="M0 0 C2 1 2 1 2 1 Z " fill="#B44AFF" transform="translate(352,206)"/>
<path d="M0 0 C2 1 2 1 2 1 Z " fill="#DF20FF" transform="translate(350,205)"/>
<path d="M0 0 C2 1 2 1 2 1 Z " fill="#952AD4" transform="translate(48,205)"/>
<path d="M0 0 C2 1 2 1 2 1 Z " fill="#952AFF" transform="translate(348,204)"/>
<path d="M0 0 C2 1 2 1 2 1 Z " fill="#8932ED" transform="translate(343,201)"/>
<path d="M0 0 C2 1 2 1 2 1 Z " fill="#9E3CFF" transform="translate(57,200)"/>
<path d="M0 0 C2 1 2 1 2 1 Z " fill="#BF20FF" transform="translate(338,198)"/>
<path d="M0 0 C2 1 2 1 2 1 Z " fill="#D42AFF" transform="translate(60,198)"/>
<path d="M0 0 C2 1 2 1 2 1 Z " fill="#952AFF" transform="translate(336,197)"/>
<path d="M0 0 C2 1 2 1 2 1 Z " fill="#DF20FF" transform="translate(334,196)"/>
<path d="M0 0 C2 1 2 1 2 1 Z " fill="#A144FF" transform="translate(66,195)"/>
<path d="M0 0 C2 1 2 1 2 1 Z " fill="#B435EA" transform="translate(69,193)"/>
<path d="M0 0 C2 1 2 1 2 1 Z " fill="#C812ED" transform="translate(71,192)"/>
<path d="M0 0 C2 1 2 1 2 1 Z " fill="#952AFF" transform="translate(326,191)"/>
<path d="M0 0 C2 1 2 1 2 1 Z " fill="#BF40FF" transform="translate(324,190)"/>
<path d="M0 0 C2 1 2 1 2 1 Z " fill="#954AB4" transform="translate(322,189)"/>
<path d="M0 0 C2 1 2 1 2 1 Z " fill="#8C39DF" transform="translate(78,188)"/>
<path d="M0 0 C2 1 2 1 2 1 Z " fill="#B04FD4" transform="translate(317,186)"/>
<path d="M0 0 C2 1 2 1 2 1 Z " fill="#8912ED" transform="translate(83,185)"/>
<path d="M0 0 C2 1 2 1 2 1 Z " fill="#AA55FF" transform="translate(314,184)"/>
<path d="M0 0 C2 1 2 1 2 1 Z " fill="#BF40FF" transform="translate(312,183)"/>
<path d="M0 0 C2 1 2 1 2 1 Z " fill="#D42AD4" transform="translate(87,183)"/>
<path d="M0 0 C2 1 2 1 2 1 Z " fill="#AA55FF" transform="translate(310,182)"/>
<path d="M0 0 C2 1 2 1 2 1 Z " fill="#B435FF" transform="translate(305,179)"/>
<path d="M0 0 C2 1 2 1 2 1 Z " fill="#AA40FF" transform="translate(95,178)"/>
<path d="M0 0 C2 1 2 1 2 1 Z " fill="#BF20FF" transform="translate(302,177)"/>
<path d="M0 0 C2 1 2 1 2 1 Z " fill="#952AFF" transform="translate(300,176)"/>
<path d="M0 0 C2 1 2 1 2 1 Z " fill="#D42AFF" transform="translate(99,176)"/>
<path d="M0 0 C2 1 2 1 2 1 Z " fill="#952AFF" transform="translate(298,175)"/>
<path d="M0 0 C2 1 2 1 2 1 Z " fill="#A144E5" transform="translate(296,174)"/>
<path d="M0 0 C2 1 2 1 2 1 Z " fill="#AA40FF" transform="translate(104,173)"/>
<path d="M0 0 C2 1 2 1 2 1 Z " fill="#DA24FF" transform="translate(291,171)"/>
<path d="M0 0 C2 1 2 1 2 1 Z " fill="#AC39E5" transform="translate(107,171)"/>
<path d="M0 0 C2 1 2 1 2 1 Z " fill="#CC19FF" transform="translate(109,170)"/>
<path d="M0 0 C2 1 2 1 2 1 Z " fill="#8000FF" transform="translate(288,169)"/>
<path d="M0 0 C2 1 2 1 2 1 Z " fill="#552AFF" transform="translate(111,169)"/>
<path d="M0 0 C2 1 2 1 2 1 Z " fill="#AC39FF" transform="translate(116,166)"/>
<path d="M0 0 C2 1 2 1 2 1 Z " fill="#B04FD4" transform="translate(279,164)"/>
<path d="M0 0 C2 1 2 1 2 1 Z " fill="#9515EA" transform="translate(121,163)"/>
<path d="M0 0 C2 1 2 1 2 1 Z " fill="#552AD4" transform="translate(276,162)"/>
<path d="M0 0 C2 1 2 1 2 1 Z " fill="#4020FF" transform="translate(123,162)"/>
<path d="M0 0 C2 1 2 1 2 1 Z " fill="#D42AFF" transform="translate(125,161)"/>
<path d="M0 0 C2 1 2 1 2 1 Z " fill="#AA40D4" transform="translate(270,159)"/>
<path d="M0 0 C2 1 2 1 2 1 Z " fill="#9B12FF" transform="translate(130,158)"/>
<path d="M0 0 C2 1 2 1 2 1 Z " fill="#9535FF" transform="translate(267,157)"/>
<path d="M0 0 C2 1 2 1 2 1 Z " fill="#5515FF" transform="translate(265,156)"/>
<path d="M0 0 C2 1 2 1 2 1 Z " fill="#A144FF" transform="translate(133,156)"/>
<path d="M0 0 C2 1 2 1 2 1 Z " fill="#DF20FF" transform="translate(135,155)"/>
<path d="M0 0 C2 1 2 1 2 1 Z " fill="#952AFF" transform="translate(137,154)"/>
<path d="M0 0 C2 1 2 1 2 1 Z " fill="#A144FF" transform="translate(258,152)"/>
<path d="M0 0 C2 1 2 1 2 1 Z " fill="#9E3CFF" transform="translate(142,151)"/>
<path d="M0 0 C2 1 2 1 2 1 Z " fill="#D415FF" transform="translate(253,149)"/>
<path d="M0 0 C2 1 2 1 2 1 Z " fill="#8040DF" transform="translate(145,149)"/>
<path d="M0 0 C2 1 2 1 2 1 Z " fill="#CC19E5" transform="translate(147,148)"/>
<path d="M0 0 C2 1 2 1 2 1 Z " fill="#952AFF" transform="translate(149,147)"/>
<path d="M0 0 C2 1 2 1 2 1 Z " fill="#8020FF" transform="translate(151,146)"/>
<path d="M0 0 C2 1 2 1 2 1 Z " fill="#D455FF" transform="translate(241,142)"/>
<path d="M0 0 C2 1 2 1 2 1 Z " fill="#9F20FF" transform="translate(159,141)"/>
<path d="M0 0 C2 1 2 1 2 1 Z " fill="#D42AFF" transform="translate(237,140)"/>
<path d="M0 0 C2 1 2 1 2 1 Z " fill="#D42AFF" transform="translate(161,140)"/>
<path d="M0 0 C2 1 2 1 2 1 Z " fill="#BF20DF" transform="translate(163,139)"/>
<path d="M0 0 C2 1 2 1 2 1 Z " fill="#9E3CED" transform="translate(232,137)"/>
<path d="M0 0 C2 1 2 1 2 1 Z " fill="#8F20EF" transform="translate(168,136)"/>
<path d="M0 0 C2 1 2 1 2 1 Z " fill="#8C39DF" transform="translate(229,135)"/>
<path d="M0 0 C2 1 2 1 2 1 Z " fill="#CC19FF" transform="translate(227,134)"/>
<path d="M0 0 C2 1 2 1 2 1 Z " fill="#AA55D4" transform="translate(171,134)"/>
<path d="M0 0 C2 1 2 1 2 1 Z " fill="#D42AFF" transform="translate(225,133)"/>
<path d="M0 0 C2 1 2 1 2 1 Z " fill="#952ABF" transform="translate(173,133)"/>
<path d="M0 0 C2 1 2 1 2 1 Z " fill="#D42AFF" transform="translate(175,132)"/>
<path d="M0 0 C2 1 2 1 2 1 Z " fill="#B435EA" transform="translate(220,130)"/>
<path d="M0 0 C2 1 2 1 2 1 Z " fill="#9E3CED" transform="translate(180,129)"/>
<path d="M0 0 C2 1 2 1 2 1 Z " fill="#D415EA" transform="translate(215,127)"/>
<path d="M0 0 C2 1 2 1 2 1 Z " fill="#BF20DF" transform="translate(183,127)"/>
<path d="M0 0 C2 1 2 1 2 1 Z " fill="#BF20DF" transform="translate(213,126)"/>
<path d="M0 0 C2 1 2 1 2 1 Z " fill="#952AFF" transform="translate(185,126)"/>
<path d="M0 0 C2 1 2 1 2 1 Z " fill="#952AFF" transform="translate(211,125)"/>
<path d="M0 0 C2 1 2 1 2 1 Z " fill="#FF80FF" transform="translate(187,125)"/>
<path d="M0 0 C2 1 2 1 2 1 Z " fill="#CC59E5" transform="translate(189,124)"/>
<path d="M0 0 C2 1 2 1 2 1 Z " fill="#DA24FF" transform="translate(194,121)"/>
<path d="M0 0 C2 1 2 1 2 1 Z " fill="#8C19E5" transform="translate(203,120)"/>
<path d="M0 0 C2 1 2 1 2 1 Z " fill="#DF20FF" transform="translate(201,119)"/>
<path d="M0 0 C2 1 2 1 2 1 Z " fill="#952AFF" transform="translate(197,119)"/>
<path d="M0 0 C2 1 2 1 2 1 Z " fill="#952AFF" transform="translate(199,118)"/>
<path d="M0 0 C2 1 2 1 2 1 Z " fill="#BF60FF" transform="translate(396,111)"/>
<path d="M0 0 C2 1 2 1 2 1 Z " fill="#BF40FF" transform="translate(394,110)"/>
<path d="M0 0 C2 1 2 1 2 1 Z " fill="#D42AFF" transform="translate(4,110)"/>
<path d="M0 0 C2 1 2 1 2 1 Z " fill="#8020DF" transform="translate(392,109)"/>
<path d="M0 0 C2 1 2 1 2 1 Z " fill="#5F20FF" transform="translate(6,109)"/>
<path d="M0 0 C2 1 2 1 2 1 Z " fill="#9515FF" transform="translate(8,108)"/>
<path d="M0 0 C2 1 2 1 2 1 Z " fill="#B435EA" transform="translate(387,106)"/>
<path d="M0 0 C2 1 2 1 2 1 Z " fill="#952AFF" transform="translate(382,103)"/>
<path d="M0 0 C2 1 2 1 2 1 Z " fill="#BF20DF" transform="translate(380,102)"/>
<path d="M0 0 C2 1 2 1 2 1 Z " fill="#552A7F" transform="translate(18,102)"/>
<path d="M0 0 C2 1 2 1 2 1 Z " fill="#954ADF" transform="translate(378,101)"/>
<path d="M0 0 C2 1 2 1 2 1 Z " fill="#D415FF" transform="translate(20,101)"/>
<path d="M0 0 C2 1 2 1 2 1 Z " fill="#9933E5" transform="translate(22,100)"/>
<path d="M0 0 C2 1 2 1 2 1 Z " fill="#B04FFF" transform="translate(375,99)"/>
<path d="M0 0 C2 1 2 1 2 1 Z " fill="#AA40EA" transform="translate(25,98)"/>
<path d="M0 0 C2 1 2 1 2 1 Z " fill="#952AFF" transform="translate(370,96)"/>
<path d="M0 0 C2 1 2 1 2 1 Z " fill="#BF20DF" transform="translate(368,95)"/>
<path d="M0 0 C2 1 2 1 2 1 Z " fill="#552A7F" transform="translate(30,95)"/>
<path d="M0 0 C2 1 2 1 2 1 Z " fill="#9F20FF" transform="translate(366,94)"/>
<path d="M0 0 C2 1 2 1 2 1 Z " fill="#AA40FF" transform="translate(34,93)"/>
<path d="M0 0 C2 1 2 1 2 1 Z " fill="#8F20EF" transform="translate(363,92)"/>
<path d="M0 0 C2 1 2 1 2 1 Z " fill="#952AFF" transform="translate(358,89)"/>
<path d="M0 0 C2 1 2 1 2 1 Z " fill="#D42AFF" transform="translate(356,88)"/>
<path d="M0 0 C2 1 2 1 2 1 Z " fill="#CC19FF" transform="translate(354,87)"/>
<path d="M0 0 C2 1 2 1 2 1 Z " fill="#9515FF" transform="translate(46,86)"/>
<path d="M0 0 C2 1 2 1 2 1 Z " fill="#B435FF" transform="translate(349,84)"/>
<path d="M0 0 C2 1 2 1 2 1 Z " fill="#9F40DF" transform="translate(51,83)"/>
<path d="M0 0 C2 1 2 1 2 1 Z " fill="#D42AFF" transform="translate(344,81)"/>
<path d="M0 0 C2 1 2 1 2 1 Z " fill="#CC19FF" transform="translate(342,80)"/>
<path d="M0 0 C2 1 2 1 2 1 Z " fill="#8C39DF" transform="translate(340,79)"/>
<path d="M0 0 C2 1 2 1 2 1 Z " fill="#C812FF" transform="translate(58,79)"/>
<path d="M0 0 C2 1 2 1 2 1 Z " fill="#9933E5" transform="translate(60,78)"/>
<path d="M0 0 C2 1 2 1 2 1 Z " fill="#B03CFF" transform="translate(337,77)"/>
<path d="M0 0 C2 1 2 1 2 1 Z " fill="#AA40EA" transform="translate(63,76)"/>
<path d="M0 0 C2 1 2 1 2 1 Z " fill="#D42AFF" transform="translate(332,74)"/>
<path d="M0 0 C2 1 2 1 2 1 Z " fill="#552AFF" transform="translate(69,73)"/>
<path d="M0 0 C2 1 2 1 2 1 Z " fill="#D415FF" transform="translate(328,72)"/>
<path d="M0 0 C2 1 2 1 2 1 Z " fill="#9E3CFF" transform="translate(72,71)"/>
<path d="M0 0 C2 1 2 1 2 1 Z " fill="#AA55FF" transform="translate(77,68)"/>
<path d="M0 0 C2 1 2 1 2 1 Z " fill="#D42AFF" transform="translate(320,67)"/>
<path d="M0 0 C2 1 2 1 2 1 Z " fill="#BF00FF" transform="translate(79,67)"/>
<path d="M0 0 C2 1 2 1 2 1 Z " fill="#BF00FF" transform="translate(81,66)"/>
<path d="M0 0 C2 1 2 1 2 1 Z " fill="#D415FF" transform="translate(316,65)"/>
<path d="M0 0 C2 1 2 1 2 1 Z " fill="#8F20EF" transform="translate(84,64)"/>
<path d="M0 0 C2 1 2 1 2 1 Z " fill="#8C39DF" transform="translate(311,62)"/>
<path d="M0 0 C2 1 2 1 2 1 Z " fill="#954ADF" transform="translate(89,61)"/>
<path d="M0 0 C2 1 2 1 2 1 Z " fill="#BF00FF" transform="translate(91,60)"/>
<path d="M0 0 C2 1 2 1 2 1 Z " fill="#952AFF" transform="translate(93,59)"/>
<path d="M0 0 C2 1 2 1 2 1 Z " fill="#8C39DF" transform="translate(302,57)"/>
<path d="M0 0 C2 1 2 1 2 1 Z " fill="#A12FE5" transform="translate(98,56)"/>
<path d="M0 0 C2 1 2 1 2 1 Z " fill="#9E3CED" transform="translate(299,55)"/>
<path d="M0 0 C2 1 2 1 2 1 Z " fill="#CC19E5" transform="translate(101,54)"/>
<path d="M0 0 C2 1 2 1 2 1 Z " fill="#FF40FF" transform="translate(103,53)"/>
<path d="M0 0 C2 1 2 1 2 1 Z " fill="#952AFF" transform="translate(105,52)"/>
<path d="M0 0 C2 1 2 1 2 1 Z " fill="#954ADF" transform="translate(107,51)"/>
<path d="M0 0 C2 1 2 1 2 1 Z " fill="#B03CD4" transform="translate(290,50)"/>
<path d="M0 0 C2 1 2 1 2 1 Z " fill="#9E3CED" transform="translate(110,49)"/>
<path d="M0 0 C2 1 2 1 2 1 Z " fill="#9F40FF" transform="translate(285,47)"/>
<path d="M0 0 C2 1 2 1 2 1 Z " fill="#952AFF" transform="translate(283,46)"/>
<path d="M0 0 C2 1 2 1 2 1 Z " fill="#952AFF" transform="translate(115,46)"/>
<path d="M0 0 C2 1 2 1 2 1 Z " fill="#BF00FF" transform="translate(281,45)"/>
<path d="M0 0 C2 1 2 1 2 1 Z " fill="#D42AFF" transform="translate(117,45)"/>
<path d="M0 0 C2 1 2 1 2 1 Z " fill="#BF20DF" transform="translate(119,44)"/>
<path d="M0 0 C2 1 2 1 2 1 Z " fill="#DA12FF" transform="translate(278,43)"/>
<path d="M0 0 C2 1 2 1 2 1 Z " fill="#8F20EF" transform="translate(122,42)"/>
<path d="M0 0 C2 1 2 1 2 1 Z " fill="#A144FF" transform="translate(273,40)"/>
<path d="M0 0 C2 1 2 1 2 1 Z " fill="#8020DF" transform="translate(127,39)"/>
<path d="M0 0 C2 1 2 1 2 1 Z " fill="#D42AFF" transform="translate(129,38)"/>
<path d="M0 0 C2 1 2 1 2 1 Z " fill="#D42AFF" transform="translate(267,37)"/>
<path d="M0 0 C2 1 2 1 2 1 Z " fill="#9F20FF" transform="translate(131,37)"/>
<path d="M0 0 C2 1 2 1 2 1 Z " fill="#A832ED" transform="translate(264,35)"/>
<path d="M0 0 C2 1 2 1 2 1 Z " fill="#B435FF" transform="translate(136,34)"/>
<path d="M0 0 C2 1 2 1 2 1 Z " fill="#952ABF" transform="translate(141,31)"/>
<path d="M0 0 C2 1 2 1 2 1 Z " fill="#AA55D4" transform="translate(255,30)"/>
<path d="M0 0 C2 1 2 1 2 1 Z " fill="#CC19E5" transform="translate(143,30)"/>
<path d="M0 0 C2 1 2 1 2 1 Z " fill="#9F40DF" transform="translate(145,29)"/>
<path d="M0 0 C2 1 2 1 2 1 Z " fill="#DA64FF" transform="translate(252,28)"/>
<path d="M0 0 C2 1 2 1 2 1 Z " fill="#B03CFF" transform="translate(148,27)"/>
<path d="M0 0 C2 1 2 1 2 1 Z " fill="#954ADF" transform="translate(247,25)"/>
<path d="M0 0 C2 1 2 1 2 1 Z " fill="#8000FF" transform="translate(245,24)"/>
<path d="M0 0 C2 1 2 1 2 1 Z " fill="#D42AFF" transform="translate(153,24)"/>
<path d="M0 0 C2 1 2 1 2 1 Z " fill="#952AFF" transform="translate(243,23)"/>
<path d="M0 0 C2 1 2 1 2 1 Z " fill="#DF20FF" transform="translate(155,23)"/>
<path d="M0 0 C2 1 2 1 2 1 Z " fill="#AA40BF" transform="translate(157,22)"/>
<path d="M0 0 C2 1 2 1 2 1 Z " fill="#CF20EF" transform="translate(240,21)"/>
<path d="M0 0 C2 1 2 1 2 1 Z " fill="#B44AD4" transform="translate(235,18)"/>
<path d="M0 0 C2 1 2 1 2 1 Z " fill="#952AFF" transform="translate(233,17)"/>
<path d="M0 0 C2 1 2 1 2 1 Z " fill="#D42AFF" transform="translate(165,17)"/>
<path d="M0 0 C2 1 2 1 2 1 Z " fill="#D42AFF" transform="translate(231,16)"/>
<path d="M0 0 C2 1 2 1 2 1 Z " fill="#40205F" transform="translate(167,16)"/>
<path d="M0 0 C2 1 2 1 2 1 Z " fill="#8020FF" transform="translate(229,15)"/>
<path d="M0 0 C2 1 2 1 2 1 Z " fill="#D415EA" transform="translate(169,15)"/>
<path d="M0 0 C2 1 2 1 2 1 Z " fill="#8932ED" transform="translate(226,13)"/>
<path d="M0 0 C2 1 2 1 2 1 Z " fill="#8C39FF" transform="translate(174,12)"/>
<path d="M0 0 C2 1 2 1 2 1 Z " fill="#952AFF" transform="translate(221,10)"/>
<path d="M0 0 C2 1 2 1 2 1 Z " fill="#BF20FF" transform="translate(219,9)"/>
<path d="M0 0 C2 1 2 1 2 1 Z " fill="#552AFF" transform="translate(179,9)"/>
<path d="M0 0 C2 1 2 1 2 1 Z " fill="#AA55FF" transform="translate(217,8)"/>
<path d="M0 0 C2 1 2 1 2 1 Z " fill="#4C19FF" transform="translate(181,8)"/>
<path d="M0 0 C2 1 2 1 2 1 Z " fill="#AC39FF" transform="translate(183,7)"/>
<path d="M0 0 C2 1 2 1 2 1 Z " fill="#A44AC4" transform="translate(214,6)"/>
<path d="M0 0 C2 1 2 1 2 1 Z " fill="#AA40FF" transform="translate(186,5)"/>
<path d="M0 0 C2 1 2 1 2 1 Z " fill="#952AFF" transform="translate(209,3)"/>
<path d="M0 0 C2 1 2 1 2 1 Z " fill="#D42AFF" transform="translate(207,2)"/>
<path d="M0 0 C2 1 2 1 2 1 Z " fill="#552AFF" transform="translate(191,2)"/>
<path d="M0 0 C2 1 2 1 2 1 Z " fill="#8C19FF" transform="translate(205,1)"/>
<path d="M0 0 C2 1 2 1 2 1 Z " fill="#9515EA" transform="translate(203,0)"/>
<path d="M0 0 C2 1 2 1 2 1 Z " fill="#AA40D4" transform="translate(195,0)"/>
<path d="" fill="#000000" transform="translate(0,0)"/>
<path d="" fill="#000000" transform="translate(0,0)"/>
<path d="" fill="#000000" transform="translate(0,0)"/>
<path d="" fill="#000000" transform="translate(0,0)"/>
<path d="" fill="#000000" transform="translate(0,0)"/>
<path d="" fill="#000000" transform="translate(0,0)"/>
<path d="" fill="#000000" transform="translate(0,0)"/>
<path d="" fill="#000000" transform="translate(0,0)"/>
<path d="" fill="#000000" transform="translate(0,0)"/>
<path d="" fill="#000000" transform="translate(0,0)"/>
<path d="" fill="#000000" transform="translate(0,0)"/>
<path d="" fill="#000000" transform="translate(0,0)"/>
<path d="" fill="#000000" transform="translate(0,0)"/>
<path d="" fill="#000000" transform="translate(0,0)"/>
<path d="" fill="#000000" transform="translate(0,0)"/>
<path d="" fill="#000000" transform="translate(0,0)"/>
<path d="" fill="#000000" transform="translate(0,0)"/>
<path d="" fill="#000000" transform="translate(0,0)"/>
<path d="" fill="#000000" transform="translate(0,0)"/>
<path d="" fill="#000000" transform="translate(0,0)"/>
<path d="" fill="#000000" transform="translate(0,0)"/>
<path d="" fill="#000000" transform="translate(0,0)"/>
<path d="" fill="#000000" transform="translate(0,0)"/>
<path d="" fill="#000000" transform="translate(0,0)"/>
<path d="" fill="#000000" transform="translate(0,0)"/>
<path d="" fill="#000000" transform="translate(0,0)"/>
<path d="" fill="#000000" transform="translate(0,0)"/>
<path d="" fill="#000000" transform="translate(0,0)"/>
<path d="" fill="#000000" transform="translate(0,0)"/>
<path d="" fill="#000000" transform="translate(0,0)"/>
<path d="" fill="#000000" transform="translate(0,0)"/>
<path d="" fill="#000000" transform="translate(0,0)"/>
<path d="" fill="#000000" transform="translate(0,0)"/>
<path d="" fill="#000000" transform="translate(0,0)"/>
<path d="" fill="#000000" transform="translate(0,0)"/>
<path d="" fill="#000000" transform="translate(0,0)"/>
<path d="" fill="#000000" transform="translate(0,0)"/>
<path d="" fill="#000000" transform="translate(0,0)"/>
<path d="" fill="#000000" transform="translate(0,0)"/>
<path d="" fill="#000000" transform="translate(0,0)"/>
<path d="" fill="#000000" transform="translate(0,0)"/>
<path d="" fill="#000000" transform="translate(0,0)"/>
<path d="" fill="#000000" transform="translate(0,0)"/>
<path d="" fill="#000000" transform="translate(0,0)"/>
<path d="" fill="#000000" transform="translate(0,0)"/>
<path d="" fill="#000000" transform="translate(0,0)"/>
<path d="" fill="#000000" transform="translate(0,0)"/>
<path d="" fill="#000000" transform="translate(0,0)"/>
<path d="" fill="#000000" transform="translate(0,0)"/>
<path d="" fill="#000000" transform="translate(0,0)"/>
<path d="" fill="#000000" transform="translate(0,0)"/>
<path d="" fill="#000000" transform="translate(0,0)"/>
<path d="" fill="#000000" transform="translate(0,0)"/>
<path d="" fill="#000000" transform="translate(0,0)"/>
<path d="" fill="#000000" transform="translate(0,0)"/>
<path d="" fill="#000000" transform="translate(0,0)"/>
<path d="" fill="#000000" transform="translate(0,0)"/>
<path d="" fill="#000000" transform="translate(0,0)"/>
<path d="" fill="#000000" transform="translate(0,0)"/>
<path d="" fill="#000000" transform="translate(0,0)"/>
<path d="" fill="#000000" transform="translate(0,0)"/>
<path d="" fill="#000000" transform="translate(0,0)"/>
<path d="" fill="#000000" transform="translate(0,0)"/>
<path d="" fill="#000000" transform="translate(0,0)"/>
<path d="" fill="#000000" transform="translate(0,0)"/>
<path d="" fill="#000000" transform="translate(0,0)"/>
<path d="" fill="#000000" transform="translate(0,0)"/>
<path d="" fill="#000000" transform="translate(0,0)"/>
<path d="" fill="#000000" transform="translate(0,0)"/>
<path d="" fill="#000000" transform="translate(0,0)"/>
<path d="" fill="#000000" transform="translate(0,0)"/>
<path d="" fill="#000000" transform="translate(0,0)"/>
<path d="" fill="#000000" transform="translate(0,0)"/>
<path d="" fill="#000000" transform="translate(0,0)"/>
<path d="" fill="#000000" transform="translate(0,0)"/>
<path d="" fill="#000000" transform="translate(0,0)"/>
<path d="" fill="#000000" transform="translate(0,0)"/>
<path d="" fill="#000000" transform="translate(0,0)"/>
<path d="" fill="#000000" transform="translate(0,0)"/>
<path d="" fill="#000000" transform="translate(0,0)"/>
<path d="" fill="#000000" transform="translate(0,0)"/>
<path d="" fill="#000000" transform="translate(0,0)"/>
<path d="" fill="#000000" transform="translate(0,0)"/>
<path d="" fill="#000000" transform="translate(0,0)"/>
<path d="" fill="#000000" transform="translate(0,0)"/>
<path d="" fill="#000000" transform="translate(0,0)"/>
<path d="" fill="#000000" transform="translate(0,0)"/>
<path d="" fill="#000000" transform="translate(0,0)"/>
<path d="" fill="#000000" transform="translate(0,0)"/>
<path d="" fill="#000000" transform="translate(0,0)"/>
<path d="" fill="#000000" transform="translate(0,0)"/>
<path d="" fill="#000000" transform="translate(0,0)"/>
<path d="" fill="#000000" transform="translate(0,0)"/>
<path d="" fill="#000000" transform="translate(0,0)"/>
<path d="" fill="#000000" transform="translate(0,0)"/>
<path d="" fill="#000000" transform="translate(0,0)"/>
<path d="" fill="#000000" transform="translate(0,0)"/>
<path d="" fill="#000000" transform="translate(0,0)"/>
<path d="" fill="#000000" transform="translate(0,0)"/>
<path d="" fill="#000000" transform="translate(0,0)"/>
<path d="" fill="#000000" transform="translate(0,0)"/>
<path d="" fill="#000000" transform="translate(0,0)"/>
<path d="" fill="#000000" transform="translate(0,0)"/>
<path d="" fill="#000000" transform="translate(0,0)"/>
<path d="" fill="#000000" transform="translate(0,0)"/>
<path d="" fill="#FF00FF" transform="translate(0,0)"/>
<path d="" fill="#B624FF" transform="translate(0,0)"/>
<path d="" fill="#AA2BD5" transform="translate(0,0)"/>
<path d="" fill="#9224DB" transform="translate(0,0)"/>
<path d="" fill="#9224DB" transform="translate(0,0)"/>
<path d="" fill="#9224DB" transform="translate(0,0)"/>
<path d="" fill="#9933FF" transform="translate(0,0)"/>
<path d="" fill="#AA2BFF" transform="translate(0,0)"/>
<path d="" fill="#B649FF" transform="translate(0,0)"/>
<path d="" fill="#8040BF" transform="translate(0,0)"/>
<path d="" fill="#AA2BFF" transform="translate(0,0)"/>
<path d="" fill="#9933CC" transform="translate(0,0)"/>
<path d="" fill="#9224DB" transform="translate(0,0)"/>
<path d="" fill="#9933FF" transform="translate(0,0)"/>
<path d="" fill="#9F40DF" transform="translate(0,0)"/>
<path d="" fill="#9933CC" transform="translate(0,0)"/>
<path d="" fill="#AA2BD5" transform="translate(0,0)"/>
<path d="" fill="#B624FF" transform="translate(0,0)"/>
<path d="" fill="#9224DB" transform="translate(0,0)"/>
<path d="" fill="#AA55FF" transform="translate(0,0)"/>
<path d="" fill="#9F40DF" transform="translate(0,0)"/>
<path d="" fill="#BF40FF" transform="translate(0,0)"/>
<path d="" fill="#9933CC" transform="translate(0,0)"/>
<path d="" fill="#B624FF" transform="translate(0,0)"/>
<path d="" fill="#AA2BFF" transform="translate(0,0)"/>
<path d="" fill="#B624FF" transform="translate(0,0)"/>
<path d="" fill="#9933CC" transform="translate(0,0)"/>
<path d="" fill="#8000FF" transform="translate(0,0)"/>
<path d="" fill="#B649FF" transform="translate(0,0)"/>
<path d="" fill="#B624FF" transform="translate(0,0)"/>
<path d="" fill="#9F40DF" transform="translate(0,0)"/>
<path d="" fill="#9933FF" transform="translate(0,0)"/>
<path d="" fill="#AA2BFF" transform="translate(0,0)"/>
<path d="" fill="#9933FF" transform="translate(0,0)"/>
<path d="" fill="#BF40FF" transform="translate(0,0)"/>
<path d="" fill="#B649FF" transform="translate(0,0)"/>
<path d="" fill="#B624FF" transform="translate(0,0)"/>
<path d="" fill="#BF40FF" transform="translate(0,0)"/>
<path d="" fill="#AA2BFF" transform="translate(0,0)"/>
<path d="" fill="#BF40FF" transform="translate(0,0)"/>
<path d="" fill="#CC33FF" transform="translate(0,0)"/>
<path d="" fill="#AA55FF" transform="translate(0,0)"/>
<path d="" fill="#AA2BFF" transform="translate(0,0)"/>
<path d="" fill="#B624FF" transform="translate(0,0)"/>
<path d="" fill="#9224DB" transform="translate(0,0)"/>
<path d="" fill="#AA55AA" transform="translate(0,0)"/>
<path d="" fill="#9933FF" transform="translate(0,0)"/>
<path d="" fill="#B649FF" transform="translate(0,0)"/>
<path d="" fill="#BF40FF" transform="translate(0,0)"/>
<path d="" fill="#AA2BFF" transform="translate(0,0)"/>
<path d="" fill="#9224DB" transform="translate(0,0)"/>
<path d="" fill="#AA2BFF" transform="translate(0,0)"/>
<path d="" fill="#B649FF" transform="translate(0,0)"/>
<path d="" fill="#9933FF" transform="translate(0,0)"/>
<path d="" fill="#B649FF" transform="translate(0,0)"/>
<path d="" fill="#AA2BFF" transform="translate(0,0)"/>
<path d="" fill="#B649FF" transform="translate(0,0)"/>
<path d="" fill="#CC33FF" transform="translate(0,0)"/>
</svg>
